<?xml version="1.0" encoding="UTF-8"?>
<svg xmlns="http://www.w3.org/2000/svg" xmlns:xlink="http://www.w3.org/1999/xlink" width="451pt" height="254pt" viewBox="0 0 451 254" version="1.1">
<g id="surface1">
<path style="fill:none;stroke-width:1;stroke-linecap:round;stroke-linejoin:round;stroke:rgb(0%,0%,0%);stroke-opacity:1;stroke-miterlimit:10;" d="M 174.390625 93.453125 L 174.390625 36.55 " transform="matrix(1.25,0,0,1.25,-135,63.75)"/>
<path style="fill:none;stroke-width:1;stroke-linecap:butt;stroke-linejoin:miter;stroke:rgb(0%,0%,0%);stroke-opacity:1;stroke-miterlimit:10;" d="M 174.390625 32.55 L 174.390625 36.55 M 172.890625 36.55 L 174.390625 32.55 L 175.890625 36.55 " transform="matrix(1.25,0,0,1.25,-135,63.75)"/>
<path style=" stroke:none;fill-rule:nonzero;fill:rgb(0%,0%,0%);fill-opacity:1;" d="M 185.175781 88.738281 L 185.175781 89.480469 L 189.21875 89.480469 L 189.21875 90.535156 L 185.820312 90.535156 L 185.820312 91.277344 L 189.21875 91.277344 L 189.21875 92.351562 L 184.785156 92.351562 L 184.785156 93.074219 L 188.398438 93.074219 C 187.558594 94.070312 186.25 94.851562 184.453125 95.496094 L 184.882812 96.179688 C 185.644531 95.886719 186.328125 95.554688 186.933594 95.183594 L 186.933594 96.941406 C 186.933594 97.117188 186.796875 97.253906 186.5625 97.351562 L 186.835938 98.035156 C 188.046875 97.742188 189.21875 97.371094 190.390625 96.902344 L 190.234375 96.140625 C 189.394531 96.472656 188.574219 96.785156 187.734375 97.039062 L 187.734375 94.636719 C 188.339844 94.167969 188.847656 93.640625 189.238281 93.074219 L 189.648438 93.074219 C 190.585938 95.515625 192.109375 97.175781 194.199219 98.015625 L 194.628906 97.292969 C 193.59375 96.902344 192.695312 96.316406 191.953125 95.515625 C 192.675781 95.203125 193.300781 94.753906 193.886719 94.1875 L 193.320312 93.640625 C 192.734375 94.265625 192.128906 94.714844 191.503906 95.007812 C 191.054688 94.441406 190.683594 93.796875 190.390625 93.074219 L 194.472656 93.074219 L 194.472656 92.351562 L 190.039062 92.351562 L 190.039062 91.277344 L 193.4375 91.277344 L 193.4375 90.535156 L 190.039062 90.535156 L 190.039062 89.480469 L 194.082031 89.480469 L 194.082031 88.738281 L 190.039062 88.738281 L 190.039062 87.78125 L 189.21875 87.78125 L 189.21875 88.738281 Z M 185.175781 88.738281 "/>
<path style=" stroke:none;fill-rule:nonzero;fill:rgb(0%,0%,0%);fill-opacity:1;" d="M 200.273438 97.9375 C 200.976562 97.9375 201.328125 97.585938 201.328125 96.902344 L 201.328125 92.019531 L 205.664062 92.019531 L 205.664062 91.21875 L 196.09375 91.21875 L 196.09375 92.019531 L 200.507812 92.019531 L 200.507812 96.707031 C 200.507812 97.019531 200.332031 97.195312 200 97.195312 C 199.570312 97.195312 199.140625 97.175781 198.671875 97.136719 L 198.828125 97.9375 Z M 197.8125 93.269531 C 197.421875 94.636719 196.796875 95.886719 195.9375 97 L 196.640625 97.449219 C 197.5 96.316406 198.144531 94.988281 198.613281 93.425781 Z M 203.75 93.152344 L 203.027344 93.40625 C 203.75 94.539062 204.414062 95.867188 205.019531 97.351562 L 205.761719 97.019531 C 205.195312 95.652344 204.53125 94.363281 203.75 93.152344 Z M 197.128906 88.367188 L 197.128906 89.148438 L 204.667969 89.148438 L 204.667969 88.367188 Z M 197.128906 88.367188 "/>
<path style=" stroke:none;fill-rule:nonzero;fill:rgb(0%,0%,0%);fill-opacity:1;" d="M 206.816406 98.015625 L 207.480469 97.9375 C 207.558594 98.320312 207.683594 98.59375 207.871094 98.757812 C 208.050781 98.914062 208.269531 98.992188 208.535156 98.992188 C 208.847656 98.992188 209.105469 98.890625 209.316406 98.679688 C 209.519531 98.460938 209.628906 98.191406 209.628906 97.878906 C 209.628906 97.566406 209.53125 97.3125 209.335938 97.117188 C 209.140625 96.921875 208.890625 96.824219 208.59375 96.824219 C 208.460938 96.824219 208.304688 96.855469 208.125 96.902344 L 208.183594 96.316406 C 208.230469 96.332031 208.269531 96.335938 208.300781 96.335938 C 208.574219 96.335938 208.816406 96.269531 209.042969 96.121094 C 209.277344 95.964844 209.394531 95.742188 209.394531 95.4375 C 209.394531 95.195312 209.304688 94.988281 209.140625 94.832031 C 208.984375 94.675781 208.773438 94.597656 208.515625 94.597656 C 208.25 94.597656 208.035156 94.675781 207.871094 94.832031 C 207.699219 94.988281 207.585938 95.234375 207.539062 95.554688 L 206.894531 95.4375 C 206.972656 95 207.152344 94.65625 207.441406 94.421875 C 207.722656 94.179688 208.074219 94.050781 208.496094 94.050781 C 208.792969 94.050781 209.066406 94.121094 209.316406 94.246094 C 209.558594 94.363281 209.75 94.535156 209.882812 94.753906 C 210.007812 94.980469 210.078125 95.203125 210.078125 95.4375 C 210.078125 95.671875 210.007812 95.886719 209.882812 96.082031 C 209.765625 96.269531 209.578125 96.414062 209.335938 96.53125 C 209.648438 96.609375 209.886719 96.765625 210.058594 97 C 210.238281 97.226562 210.332031 97.507812 210.332031 97.859375 C 210.332031 98.328125 210.160156 98.730469 209.824219 99.050781 C 209.480469 99.378906 209.050781 99.539062 208.535156 99.539062 C 208.050781 99.539062 207.65625 99.402344 207.34375 99.128906 C 207.039062 98.847656 206.863281 98.476562 206.816406 98.015625 Z M 206.816406 98.015625 "/>
<path style=" stroke:none;fill-rule:nonzero;fill:rgb(0%,0%,0%);fill-opacity:1;" d="M 6.773438 88.738281 L 6.773438 89.480469 L 10.816406 89.480469 L 10.816406 90.535156 L 7.417969 90.535156 L 7.417969 91.277344 L 10.816406 91.277344 L 10.816406 92.351562 L 6.382812 92.351562 L 6.382812 93.074219 L 9.996094 93.074219 C 9.15625 94.070312 7.847656 94.851562 6.050781 95.496094 L 6.480469 96.179688 C 7.242188 95.886719 7.925781 95.554688 8.53125 95.183594 L 8.53125 96.941406 C 8.53125 97.117188 8.394531 97.253906 8.160156 97.351562 L 8.433594 98.035156 C 9.644531 97.742188 10.816406 97.371094 11.988281 96.902344 L 11.832031 96.140625 C 10.992188 96.472656 10.171875 96.785156 9.332031 97.039062 L 9.332031 94.636719 C 9.9375 94.167969 10.445312 93.640625 10.835938 93.074219 L 11.246094 93.074219 C 12.183594 95.515625 13.707031 97.175781 15.796875 98.015625 L 16.226562 97.292969 C 15.191406 96.902344 14.292969 96.316406 13.550781 95.515625 C 14.273438 95.203125 14.898438 94.753906 15.484375 94.1875 L 14.917969 93.640625 C 14.332031 94.265625 13.726562 94.714844 13.101562 95.007812 C 12.652344 94.441406 12.28125 93.796875 11.988281 93.074219 L 16.070312 93.074219 L 16.070312 92.351562 L 11.636719 92.351562 L 11.636719 91.277344 L 15.035156 91.277344 L 15.035156 90.535156 L 11.636719 90.535156 L 11.636719 89.480469 L 15.679688 89.480469 L 15.679688 88.738281 L 11.636719 88.738281 L 11.636719 87.78125 L 10.816406 87.78125 L 10.816406 88.738281 Z M 6.773438 88.738281 "/>
<path style=" stroke:none;fill-rule:nonzero;fill:rgb(0%,0%,0%);fill-opacity:1;" d="M 21.871094 97.9375 C 22.574219 97.9375 22.925781 97.585938 22.925781 96.902344 L 22.925781 92.019531 L 27.261719 92.019531 L 27.261719 91.21875 L 17.691406 91.21875 L 17.691406 92.019531 L 22.105469 92.019531 L 22.105469 96.707031 C 22.105469 97.019531 21.929688 97.195312 21.597656 97.195312 C 21.167969 97.195312 20.738281 97.175781 20.269531 97.136719 L 20.425781 97.9375 Z M 19.410156 93.269531 C 19.019531 94.636719 18.394531 95.886719 17.535156 97 L 18.238281 97.449219 C 19.097656 96.316406 19.742188 94.988281 20.210938 93.425781 Z M 25.347656 93.152344 L 24.625 93.40625 C 25.347656 94.539062 26.011719 95.867188 26.617188 97.351562 L 27.359375 97.019531 C 26.792969 95.652344 26.128906 94.363281 25.347656 93.152344 Z M 18.726562 88.367188 L 18.726562 89.148438 L 26.265625 89.148438 L 26.265625 88.367188 Z M 18.726562 88.367188 "/>
<path style=" stroke:none;fill-rule:nonzero;fill:rgb(0%,0%,0%);fill-opacity:1;" d="M 28.511719 97.097656 L 28.511719 96.472656 L 32.066406 94.96875 L 32.066406 95.632812 L 29.253906 96.785156 L 32.066406 97.957031 L 32.066406 98.621094 Z M 28.511719 97.097656 "/>
<path style=" stroke:none;fill-rule:nonzero;fill:rgb(0%,0%,0%);fill-opacity:1;" d="M 35.511719 98.015625 L 36.15625 98.09375 C 36.085938 98.554688 35.90625 98.910156 35.609375 99.167969 C 35.320312 99.417969 34.96875 99.539062 34.554688 99.539062 C 34.015625 99.539062 33.585938 99.363281 33.265625 99.011719 C 32.9375 98.660156 32.777344 98.164062 32.777344 97.507812 C 32.777344 97.09375 32.839844 96.726562 32.972656 96.414062 C 33.113281 96.101562 33.328125 95.867188 33.617188 95.710938 C 33.898438 95.546875 34.210938 95.457031 34.554688 95.457031 C 34.96875 95.457031 35.304688 95.570312 35.570312 95.789062 C 35.84375 96 36.019531 96.296875 36.097656 96.6875 L 35.453125 96.785156 C 35.398438 96.527344 35.296875 96.332031 35.140625 96.199219 C 34.984375 96.074219 34.792969 96.003906 34.574219 96.003906 C 34.246094 96.003906 33.976562 96.132812 33.773438 96.375 C 33.5625 96.609375 33.460938 96.980469 33.460938 97.488281 C 33.460938 98.011719 33.558594 98.398438 33.753906 98.640625 C 33.949219 98.875 34.207031 98.992188 34.535156 98.992188 C 34.792969 98.992188 35.007812 98.914062 35.179688 98.757812 C 35.359375 98.59375 35.472656 98.34375 35.511719 98.015625 Z M 35.511719 98.015625 "/>
<path style=" stroke:none;fill-rule:nonzero;fill:rgb(0%,0%,0%);fill-opacity:1;" d="M 36.722656 99.441406 L 36.722656 94.070312 L 37.367188 94.070312 L 37.367188 99.441406 Z M 36.722656 99.441406 "/>
<path style=" stroke:none;fill-rule:nonzero;fill:rgb(0%,0%,0%);fill-opacity:1;" d="M 38.132812 98.289062 L 38.777344 98.171875 C 38.816406 98.4375 38.921875 98.636719 39.089844 98.777344 C 39.257812 98.925781 39.492188 98.992188 39.792969 98.992188 C 40.09375 98.992188 40.3125 98.933594 40.457031 98.816406 C 40.613281 98.691406 40.691406 98.539062 40.691406 98.367188 C 40.691406 98.226562 40.625 98.109375 40.496094 98.015625 C 40.40625 97.96875 40.175781 97.894531 39.8125 97.800781 C 39.332031 97.675781 38.992188 97.566406 38.796875 97.488281 C 38.613281 97.402344 38.472656 97.273438 38.367188 97.117188 C 38.277344 96.953125 38.230469 96.777344 38.230469 96.589844 C 38.230469 96.410156 38.269531 96.25 38.347656 96.101562 C 38.4375 95.960938 38.550781 95.839844 38.679688 95.730469 C 38.785156 95.652344 38.921875 95.589844 39.089844 95.535156 C 39.273438 95.488281 39.46875 95.457031 39.675781 95.457031 C 39.976562 95.457031 40.242188 95.507812 40.476562 95.59375 C 40.710938 95.6875 40.878906 95.808594 40.984375 95.964844 C 41.101562 96.113281 41.179688 96.308594 41.21875 96.550781 L 40.574219 96.648438 C 40.535156 96.445312 40.445312 96.289062 40.300781 96.179688 C 40.171875 96.0625 39.976562 96.003906 39.714844 96.003906 C 39.414062 96.003906 39.199219 96.058594 39.070312 96.160156 C 38.941406 96.253906 38.875 96.371094 38.875 96.511719 C 38.875 96.589844 38.902344 96.667969 38.953125 96.746094 C 39.003906 96.816406 39.089844 96.875 39.207031 96.921875 C 39.273438 96.9375 39.46875 96.992188 39.792969 97.078125 C 40.261719 97.210938 40.585938 97.3125 40.769531 97.390625 C 40.953125 97.46875 41.09375 97.585938 41.199219 97.742188 C 41.304688 97.890625 41.355469 98.070312 41.355469 98.289062 C 41.355469 98.515625 41.289062 98.71875 41.160156 98.914062 C 41.042969 99.109375 40.859375 99.265625 40.613281 99.382812 C 40.367188 99.488281 40.09375 99.539062 39.792969 99.539062 C 39.285156 99.539062 38.894531 99.4375 38.621094 99.226562 C 38.359375 99.007812 38.199219 98.695312 38.132812 98.289062 Z M 38.132812 98.289062 "/>
<path style=" stroke:none;fill-rule:nonzero;fill:rgb(0%,0%,0%);fill-opacity:1;" d="M 45.613281 97.097656 L 42.058594 98.621094 L 42.058594 97.957031 L 44.871094 96.785156 L 42.058594 95.632812 L 42.058594 94.96875 L 45.613281 96.472656 Z M 45.613281 97.097656 "/>
<path style=" stroke:none;fill-rule:nonzero;fill:rgb(0%,0%,0%);fill-opacity:1;" d="M 70.828125 88.738281 L 70.828125 89.480469 L 74.871094 89.480469 L 74.871094 90.535156 L 71.472656 90.535156 L 71.472656 91.277344 L 74.871094 91.277344 L 74.871094 92.351562 L 70.4375 92.351562 L 70.4375 93.074219 L 74.050781 93.074219 C 73.210938 94.070312 71.902344 94.851562 70.105469 95.496094 L 70.535156 96.179688 C 71.296875 95.886719 71.980469 95.554688 72.585938 95.183594 L 72.585938 96.941406 C 72.585938 97.117188 72.449219 97.253906 72.214844 97.351562 L 72.488281 98.035156 C 73.699219 97.742188 74.871094 97.371094 76.042969 96.902344 L 75.886719 96.140625 C 75.046875 96.472656 74.226562 96.785156 73.386719 97.039062 L 73.386719 94.636719 C 73.992188 94.167969 74.5 93.640625 74.890625 93.074219 L 75.300781 93.074219 C 76.238281 95.515625 77.761719 97.175781 79.851562 98.015625 L 80.28125 97.292969 C 79.246094 96.902344 78.347656 96.316406 77.605469 95.515625 C 78.328125 95.203125 78.953125 94.753906 79.539062 94.1875 L 78.972656 93.640625 C 78.386719 94.265625 77.78125 94.714844 77.15625 95.007812 C 76.707031 94.441406 76.335938 93.796875 76.042969 93.074219 L 80.125 93.074219 L 80.125 92.351562 L 75.691406 92.351562 L 75.691406 91.277344 L 79.089844 91.277344 L 79.089844 90.535156 L 75.691406 90.535156 L 75.691406 89.480469 L 79.734375 89.480469 L 79.734375 88.738281 L 75.691406 88.738281 L 75.691406 87.78125 L 74.871094 87.78125 L 74.871094 88.738281 Z M 70.828125 88.738281 "/>
<path style=" stroke:none;fill-rule:nonzero;fill:rgb(0%,0%,0%);fill-opacity:1;" d="M 85.925781 97.9375 C 86.628906 97.9375 86.980469 97.585938 86.980469 96.902344 L 86.980469 92.019531 L 91.316406 92.019531 L 91.316406 91.21875 L 81.746094 91.21875 L 81.746094 92.019531 L 86.160156 92.019531 L 86.160156 96.707031 C 86.160156 97.019531 85.984375 97.195312 85.652344 97.195312 C 85.222656 97.195312 84.792969 97.175781 84.324219 97.136719 L 84.480469 97.9375 Z M 83.464844 93.269531 C 83.074219 94.636719 82.449219 95.886719 81.589844 97 L 82.292969 97.449219 C 83.152344 96.316406 83.796875 94.988281 84.265625 93.425781 Z M 89.402344 93.152344 L 88.679688 93.40625 C 89.402344 94.539062 90.066406 95.867188 90.671875 97.351562 L 91.414062 97.019531 C 90.847656 95.652344 90.183594 94.363281 89.402344 93.152344 Z M 82.78125 88.367188 L 82.78125 89.148438 L 90.320312 89.148438 L 90.320312 88.367188 Z M 82.78125 88.367188 "/>
<path style=" stroke:none;fill-rule:nonzero;fill:rgb(0%,0%,0%);fill-opacity:1;" d="M 94.949219 99.441406 L 94.285156 99.441406 L 94.285156 95.242188 C 94.128906 95.398438 93.917969 95.554688 93.660156 95.710938 C 93.410156 95.859375 93.179688 95.964844 92.976562 96.042969 L 92.976562 95.398438 C 93.335938 95.234375 93.660156 95.023438 93.933594 94.773438 C 94.214844 94.53125 94.410156 94.285156 94.519531 94.050781 L 94.949219 94.050781 Z M 94.949219 99.441406 "/>
<path style=" stroke:none;fill-rule:nonzero;fill:rgb(0%,0%,0%);fill-opacity:1;" d="M 128 88.738281 L 128 89.480469 L 132.042969 89.480469 L 132.042969 90.535156 L 128.644531 90.535156 L 128.644531 91.277344 L 132.042969 91.277344 L 132.042969 92.351562 L 127.609375 92.351562 L 127.609375 93.074219 L 131.222656 93.074219 C 130.382812 94.070312 129.074219 94.851562 127.277344 95.496094 L 127.707031 96.179688 C 128.46875 95.886719 129.152344 95.554688 129.757812 95.183594 L 129.757812 96.941406 C 129.757812 97.117188 129.621094 97.253906 129.386719 97.351562 L 129.660156 98.035156 C 130.871094 97.742188 132.042969 97.371094 133.214844 96.902344 L 133.058594 96.140625 C 132.21875 96.472656 131.398438 96.785156 130.558594 97.039062 L 130.558594 94.636719 C 131.164062 94.167969 131.671875 93.640625 132.0625 93.074219 L 132.472656 93.074219 C 133.410156 95.515625 134.933594 97.175781 137.023438 98.015625 L 137.453125 97.292969 C 136.417969 96.902344 135.519531 96.316406 134.777344 95.515625 C 135.5 95.203125 136.125 94.753906 136.710938 94.1875 L 136.144531 93.640625 C 135.558594 94.265625 134.953125 94.714844 134.328125 95.007812 C 133.878906 94.441406 133.507812 93.796875 133.214844 93.074219 L 137.296875 93.074219 L 137.296875 92.351562 L 132.863281 92.351562 L 132.863281 91.277344 L 136.261719 91.277344 L 136.261719 90.535156 L 132.863281 90.535156 L 132.863281 89.480469 L 136.90625 89.480469 L 136.90625 88.738281 L 132.863281 88.738281 L 132.863281 87.78125 L 132.042969 87.78125 L 132.042969 88.738281 Z M 128 88.738281 "/>
<path style=" stroke:none;fill-rule:nonzero;fill:rgb(0%,0%,0%);fill-opacity:1;" d="M 143.097656 97.9375 C 143.800781 97.9375 144.152344 97.585938 144.152344 96.902344 L 144.152344 92.019531 L 148.488281 92.019531 L 148.488281 91.21875 L 138.917969 91.21875 L 138.917969 92.019531 L 143.332031 92.019531 L 143.332031 96.707031 C 143.332031 97.019531 143.15625 97.195312 142.824219 97.195312 C 142.394531 97.195312 141.964844 97.175781 141.496094 97.136719 L 141.652344 97.9375 Z M 140.636719 93.269531 C 140.246094 94.636719 139.621094 95.886719 138.761719 97 L 139.464844 97.449219 C 140.324219 96.316406 140.96875 94.988281 141.4375 93.425781 Z M 146.574219 93.152344 L 145.851562 93.40625 C 146.574219 94.539062 147.238281 95.867188 147.84375 97.351562 L 148.585938 97.019531 C 148.019531 95.652344 147.355469 94.363281 146.574219 93.152344 Z M 139.953125 88.367188 L 139.953125 89.148438 L 147.492188 89.148438 L 147.492188 88.367188 Z M 139.953125 88.367188 "/>
<path style=" stroke:none;fill-rule:nonzero;fill:rgb(0%,0%,0%);fill-opacity:1;" d="M 153.097656 98.816406 L 153.097656 99.441406 L 149.5625 99.441406 C 149.550781 99.285156 149.574219 99.140625 149.640625 98.992188 C 149.730469 98.75 149.875 98.503906 150.070312 98.269531 C 150.265625 98.035156 150.550781 97.761719 150.929688 97.449219 C 151.515625 96.980469 151.90625 96.609375 152.101562 96.335938 C 152.308594 96.054688 152.414062 95.785156 152.414062 95.535156 C 152.414062 95.261719 152.324219 95.042969 152.140625 94.871094 C 151.957031 94.691406 151.71875 94.597656 151.417969 94.597656 C 151.09375 94.597656 150.832031 94.695312 150.636719 94.890625 C 150.453125 95.078125 150.363281 95.335938 150.363281 95.671875 L 149.679688 95.59375 C 149.730469 95.101562 149.90625 94.726562 150.207031 94.460938 C 150.507812 94.1875 150.910156 94.050781 151.417969 94.050781 C 151.9375 94.050781 152.347656 94.199219 152.648438 94.480469 C 152.949219 94.769531 153.097656 95.121094 153.097656 95.535156 C 153.097656 95.761719 153.050781 95.976562 152.960938 96.179688 C 152.871094 96.390625 152.71875 96.609375 152.511719 96.84375 C 152.316406 97.070312 151.984375 97.382812 151.515625 97.78125 C 151.113281 98.109375 150.851562 98.328125 150.734375 98.445312 C 150.628906 98.5625 150.546875 98.691406 150.480469 98.816406 Z M 153.097656 98.816406 "/>
<path style=" stroke:none;fill-rule:nonzero;fill:rgb(0%,0%,0%);fill-opacity:1;" d="M 242.351562 88.738281 L 242.351562 89.480469 L 246.394531 89.480469 L 246.394531 90.535156 L 242.996094 90.535156 L 242.996094 91.277344 L 246.394531 91.277344 L 246.394531 92.351562 L 241.960938 92.351562 L 241.960938 93.074219 L 245.574219 93.074219 C 244.734375 94.070312 243.425781 94.851562 241.628906 95.496094 L 242.058594 96.179688 C 242.820312 95.886719 243.503906 95.554688 244.109375 95.183594 L 244.109375 96.941406 C 244.109375 97.117188 243.972656 97.253906 243.738281 97.351562 L 244.011719 98.035156 C 245.222656 97.742188 246.394531 97.371094 247.566406 96.902344 L 247.410156 96.140625 C 246.570312 96.472656 245.75 96.785156 244.910156 97.039062 L 244.910156 94.636719 C 245.515625 94.167969 246.023438 93.640625 246.414062 93.074219 L 246.824219 93.074219 C 247.761719 95.515625 249.285156 97.175781 251.375 98.015625 L 251.804688 97.292969 C 250.769531 96.902344 249.871094 96.316406 249.128906 95.515625 C 249.851562 95.203125 250.476562 94.753906 251.0625 94.1875 L 250.496094 93.640625 C 249.910156 94.265625 249.304688 94.714844 248.679688 95.007812 C 248.230469 94.441406 247.859375 93.796875 247.566406 93.074219 L 251.648438 93.074219 L 251.648438 92.351562 L 247.214844 92.351562 L 247.214844 91.277344 L 250.613281 91.277344 L 250.613281 90.535156 L 247.214844 90.535156 L 247.214844 89.480469 L 251.257812 89.480469 L 251.257812 88.738281 L 247.214844 88.738281 L 247.214844 87.78125 L 246.394531 87.78125 L 246.394531 88.738281 Z M 242.351562 88.738281 "/>
<path style=" stroke:none;fill-rule:nonzero;fill:rgb(0%,0%,0%);fill-opacity:1;" d="M 257.449219 97.9375 C 258.152344 97.9375 258.503906 97.585938 258.503906 96.902344 L 258.503906 92.019531 L 262.839844 92.019531 L 262.839844 91.21875 L 253.269531 91.21875 L 253.269531 92.019531 L 257.683594 92.019531 L 257.683594 96.707031 C 257.683594 97.019531 257.507812 97.195312 257.175781 97.195312 C 256.746094 97.195312 256.316406 97.175781 255.847656 97.136719 L 256.003906 97.9375 Z M 254.988281 93.269531 C 254.597656 94.636719 253.972656 95.886719 253.113281 97 L 253.816406 97.449219 C 254.675781 96.316406 255.320312 94.988281 255.789062 93.425781 Z M 260.925781 93.152344 L 260.203125 93.40625 C 260.925781 94.539062 261.589844 95.867188 262.195312 97.351562 L 262.9375 97.019531 C 262.371094 95.652344 261.707031 94.363281 260.925781 93.152344 Z M 254.304688 88.367188 L 254.304688 89.148438 L 261.84375 89.148438 L 261.84375 88.367188 Z M 254.304688 88.367188 "/>
<path style=" stroke:none;fill-rule:nonzero;fill:rgb(0%,0%,0%);fill-opacity:1;" d="M 266.101562 99.441406 L 266.101562 98.152344 L 263.777344 98.152344 L 263.777344 97.546875 L 266.21875 94.070312 L 266.765625 94.070312 L 266.765625 97.546875 L 267.488281 97.546875 L 267.488281 98.152344 L 266.765625 98.152344 L 266.765625 99.441406 Z M 266.101562 97.546875 L 266.101562 95.125 L 264.421875 97.546875 Z M 266.101562 97.546875 "/>
<path style=" stroke:none;fill-rule:nonzero;fill:rgb(0%,0%,0%);fill-opacity:1;" d="M 299.523438 88.738281 L 299.523438 89.480469 L 303.566406 89.480469 L 303.566406 90.535156 L 300.167969 90.535156 L 300.167969 91.277344 L 303.566406 91.277344 L 303.566406 92.351562 L 299.132812 92.351562 L 299.132812 93.074219 L 302.746094 93.074219 C 301.90625 94.070312 300.597656 94.851562 298.800781 95.496094 L 299.230469 96.179688 C 299.992188 95.886719 300.675781 95.554688 301.28125 95.183594 L 301.28125 96.941406 C 301.28125 97.117188 301.144531 97.253906 300.910156 97.351562 L 301.183594 98.035156 C 302.394531 97.742188 303.566406 97.371094 304.738281 96.902344 L 304.582031 96.140625 C 303.742188 96.472656 302.921875 96.785156 302.082031 97.039062 L 302.082031 94.636719 C 302.6875 94.167969 303.195312 93.640625 303.585938 93.074219 L 303.996094 93.074219 C 304.933594 95.515625 306.457031 97.175781 308.546875 98.015625 L 308.976562 97.292969 C 307.941406 96.902344 307.042969 96.316406 306.300781 95.515625 C 307.023438 95.203125 307.648438 94.753906 308.234375 94.1875 L 307.667969 93.640625 C 307.082031 94.265625 306.476562 94.714844 305.851562 95.007812 C 305.402344 94.441406 305.03125 93.796875 304.738281 93.074219 L 308.820312 93.074219 L 308.820312 92.351562 L 304.386719 92.351562 L 304.386719 91.277344 L 307.785156 91.277344 L 307.785156 90.535156 L 304.386719 90.535156 L 304.386719 89.480469 L 308.429688 89.480469 L 308.429688 88.738281 L 304.386719 88.738281 L 304.386719 87.78125 L 303.566406 87.78125 L 303.566406 88.738281 Z M 299.523438 88.738281 "/>
<path style=" stroke:none;fill-rule:nonzero;fill:rgb(0%,0%,0%);fill-opacity:1;" d="M 314.621094 97.9375 C 315.324219 97.9375 315.675781 97.585938 315.675781 96.902344 L 315.675781 92.019531 L 320.011719 92.019531 L 320.011719 91.21875 L 310.441406 91.21875 L 310.441406 92.019531 L 314.855469 92.019531 L 314.855469 96.707031 C 314.855469 97.019531 314.679688 97.195312 314.347656 97.195312 C 313.917969 97.195312 313.488281 97.175781 313.019531 97.136719 L 313.175781 97.9375 Z M 312.160156 93.269531 C 311.769531 94.636719 311.144531 95.886719 310.285156 97 L 310.988281 97.449219 C 311.847656 96.316406 312.492188 94.988281 312.960938 93.425781 Z M 318.097656 93.152344 L 317.375 93.40625 C 318.097656 94.539062 318.761719 95.867188 319.367188 97.351562 L 320.109375 97.019531 C 319.542969 95.652344 318.878906 94.363281 318.097656 93.152344 Z M 311.476562 88.367188 L 311.476562 89.148438 L 319.015625 89.148438 L 319.015625 88.367188 Z M 311.476562 88.367188 "/>
<path style=" stroke:none;fill-rule:nonzero;fill:rgb(0%,0%,0%);fill-opacity:1;" d="M 321.164062 98.035156 L 321.847656 97.976562 C 321.898438 98.320312 322.015625 98.574219 322.199219 98.738281 C 322.394531 98.910156 322.621094 98.992188 322.882812 98.992188 C 323.207031 98.992188 323.476562 98.875 323.683594 98.640625 C 323.90625 98.398438 324.015625 98.074219 324.015625 97.683594 C 324.015625 97.308594 323.910156 97.015625 323.703125 96.804688 C 323.496094 96.585938 323.222656 96.472656 322.882812 96.472656 C 322.660156 96.472656 322.464844 96.523438 322.296875 96.609375 C 322.128906 96.703125 321.996094 96.824219 321.90625 96.980469 L 321.28125 96.902344 L 321.808594 94.148438 L 324.464844 94.148438 L 324.464844 94.773438 L 322.335938 94.773438 L 322.042969 96.21875 C 322.367188 96 322.707031 95.886719 323.058594 95.886719 C 323.527344 95.886719 323.917969 96.054688 324.230469 96.375 C 324.554688 96.703125 324.71875 97.117188 324.71875 97.625 C 324.71875 98.109375 324.574219 98.523438 324.289062 98.875 C 323.949219 99.320312 323.480469 99.539062 322.882812 99.539062 C 322.402344 99.539062 322.003906 99.402344 321.691406 99.128906 C 321.378906 98.855469 321.203125 98.496094 321.164062 98.035156 Z M 321.164062 98.035156 "/>
<path style=" stroke:none;fill-rule:nonzero;fill:rgb(0%,0%,0%);fill-opacity:1;" d="M 356.699219 88.738281 L 356.699219 89.480469 L 360.742188 89.480469 L 360.742188 90.535156 L 357.34375 90.535156 L 357.34375 91.277344 L 360.742188 91.277344 L 360.742188 92.351562 L 356.308594 92.351562 L 356.308594 93.074219 L 359.921875 93.074219 C 359.082031 94.070312 357.773438 94.851562 355.976562 95.496094 L 356.40625 96.179688 C 357.167969 95.886719 357.851562 95.554688 358.457031 95.183594 L 358.457031 96.941406 C 358.457031 97.117188 358.320312 97.253906 358.085938 97.351562 L 358.359375 98.035156 C 359.570312 97.742188 360.742188 97.371094 361.914062 96.902344 L 361.757812 96.140625 C 360.917969 96.472656 360.097656 96.785156 359.257812 97.039062 L 359.257812 94.636719 C 359.863281 94.167969 360.371094 93.640625 360.761719 93.074219 L 361.171875 93.074219 C 362.109375 95.515625 363.632812 97.175781 365.722656 98.015625 L 366.152344 97.292969 C 365.117188 96.902344 364.21875 96.316406 363.476562 95.515625 C 364.199219 95.203125 364.824219 94.753906 365.410156 94.1875 L 364.84375 93.640625 C 364.257812 94.265625 363.652344 94.714844 363.027344 95.007812 C 362.578125 94.441406 362.207031 93.796875 361.914062 93.074219 L 365.996094 93.074219 L 365.996094 92.351562 L 361.5625 92.351562 L 361.5625 91.277344 L 364.960938 91.277344 L 364.960938 90.535156 L 361.5625 90.535156 L 361.5625 89.480469 L 365.605469 89.480469 L 365.605469 88.738281 L 361.5625 88.738281 L 361.5625 87.78125 L 360.742188 87.78125 L 360.742188 88.738281 Z M 356.699219 88.738281 "/>
<path style=" stroke:none;fill-rule:nonzero;fill:rgb(0%,0%,0%);fill-opacity:1;" d="M 371.796875 97.9375 C 372.5 97.9375 372.851562 97.585938 372.851562 96.902344 L 372.851562 92.019531 L 377.1875 92.019531 L 377.1875 91.21875 L 367.617188 91.21875 L 367.617188 92.019531 L 372.03125 92.019531 L 372.03125 96.707031 C 372.03125 97.019531 371.855469 97.195312 371.523438 97.195312 C 371.09375 97.195312 370.664062 97.175781 370.195312 97.136719 L 370.351562 97.9375 Z M 369.335938 93.269531 C 368.945312 94.636719 368.320312 95.886719 367.460938 97 L 368.164062 97.449219 C 369.023438 96.316406 369.667969 94.988281 370.136719 93.425781 Z M 375.273438 93.152344 L 374.550781 93.40625 C 375.273438 94.539062 375.9375 95.867188 376.542969 97.351562 L 377.285156 97.019531 C 376.71875 95.652344 376.054688 94.363281 375.273438 93.152344 Z M 368.652344 88.367188 L 368.652344 89.148438 L 376.191406 89.148438 L 376.191406 88.367188 Z M 368.652344 88.367188 "/>
<path style=" stroke:none;fill-rule:nonzero;fill:rgb(0%,0%,0%);fill-opacity:1;" d="M 381.757812 95.378906 L 381.113281 95.4375 C 381.042969 95.179688 380.960938 94.988281 380.859375 94.871094 C 380.671875 94.691406 380.453125 94.597656 380.195312 94.597656 C 379.984375 94.597656 379.804688 94.65625 379.648438 94.773438 C 379.4375 94.921875 379.265625 95.140625 379.140625 95.4375 C 379.023438 95.726562 378.964844 96.136719 378.964844 96.667969 C 379.121094 96.433594 379.304688 96.257812 379.53125 96.140625 C 379.765625 96.023438 380.007812 95.964844 380.273438 95.964844 C 380.710938 95.964844 381.082031 96.132812 381.386719 96.453125 C 381.699219 96.765625 381.855469 97.1875 381.855469 97.703125 C 381.855469 98.046875 381.78125 98.359375 381.640625 98.640625 C 381.492188 98.929688 381.292969 99.148438 381.035156 99.304688 C 380.785156 99.460938 380.496094 99.539062 380.175781 99.539062 C 379.628906 99.539062 379.179688 99.339844 378.828125 98.933594 C 378.476562 98.535156 378.300781 97.859375 378.300781 96.921875 C 378.300781 95.898438 378.496094 95.140625 378.886719 94.65625 C 379.222656 94.257812 379.671875 94.050781 380.234375 94.050781 C 380.664062 94.050781 381.003906 94.167969 381.269531 94.402344 C 381.542969 94.636719 381.703125 94.964844 381.757812 95.378906 Z M 379.0625 97.703125 C 379.0625 97.929688 379.105469 98.144531 379.199219 98.347656 C 379.300781 98.558594 379.4375 98.71875 379.609375 98.835938 C 379.789062 98.945312 379.96875 98.992188 380.15625 98.992188 C 380.4375 98.992188 380.683594 98.886719 380.878906 98.660156 C 381.074219 98.425781 381.171875 98.125 381.171875 97.742188 C 381.171875 97.367188 381.074219 97.074219 380.878906 96.863281 C 380.683594 96.644531 380.433594 96.53125 380.136719 96.53125 C 379.832031 96.53125 379.578125 96.644531 379.375 96.863281 C 379.164062 97.074219 379.0625 97.351562 379.0625 97.703125 Z M 379.0625 97.703125 "/>
<path style=" stroke:none;fill-rule:nonzero;fill:rgb(0%,0%,0%);fill-opacity:1;" d="M 405.53125 88.738281 L 405.53125 89.480469 L 409.574219 89.480469 L 409.574219 90.535156 L 406.175781 90.535156 L 406.175781 91.277344 L 409.574219 91.277344 L 409.574219 92.351562 L 405.140625 92.351562 L 405.140625 93.074219 L 408.753906 93.074219 C 407.914062 94.070312 406.605469 94.851562 404.808594 95.496094 L 405.238281 96.179688 C 406 95.886719 406.683594 95.554688 407.289062 95.183594 L 407.289062 96.941406 C 407.289062 97.117188 407.152344 97.253906 406.917969 97.351562 L 407.191406 98.035156 C 408.402344 97.742188 409.574219 97.371094 410.746094 96.902344 L 410.589844 96.140625 C 409.75 96.472656 408.929688 96.785156 408.089844 97.039062 L 408.089844 94.636719 C 408.695312 94.167969 409.203125 93.640625 409.59375 93.074219 L 410.003906 93.074219 C 410.941406 95.515625 412.464844 97.175781 414.554688 98.015625 L 414.984375 97.292969 C 413.949219 96.902344 413.050781 96.316406 412.308594 95.515625 C 413.03125 95.203125 413.65625 94.753906 414.242188 94.1875 L 413.675781 93.640625 C 413.089844 94.265625 412.484375 94.714844 411.859375 95.007812 C 411.410156 94.441406 411.039062 93.796875 410.746094 93.074219 L 414.828125 93.074219 L 414.828125 92.351562 L 410.394531 92.351562 L 410.394531 91.277344 L 413.792969 91.277344 L 413.792969 90.535156 L 410.394531 90.535156 L 410.394531 89.480469 L 414.4375 89.480469 L 414.4375 88.738281 L 410.394531 88.738281 L 410.394531 87.78125 L 409.574219 87.78125 L 409.574219 88.738281 Z M 405.53125 88.738281 "/>
<path style=" stroke:none;fill-rule:nonzero;fill:rgb(0%,0%,0%);fill-opacity:1;" d="M 420.628906 97.9375 C 421.332031 97.9375 421.683594 97.585938 421.683594 96.902344 L 421.683594 92.019531 L 426.019531 92.019531 L 426.019531 91.21875 L 416.449219 91.21875 L 416.449219 92.019531 L 420.863281 92.019531 L 420.863281 96.707031 C 420.863281 97.019531 420.6875 97.195312 420.355469 97.195312 C 419.925781 97.195312 419.496094 97.175781 419.027344 97.136719 L 419.183594 97.9375 Z M 418.167969 93.269531 C 417.777344 94.636719 417.152344 95.886719 416.292969 97 L 416.996094 97.449219 C 417.855469 96.316406 418.5 94.988281 418.96875 93.425781 Z M 424.105469 93.152344 L 423.382812 93.40625 C 424.105469 94.539062 424.769531 95.867188 425.375 97.351562 L 426.117188 97.019531 C 425.550781 95.652344 424.886719 94.363281 424.105469 93.152344 Z M 417.484375 88.367188 L 417.484375 89.148438 L 425.023438 89.148438 L 425.023438 88.367188 Z M 417.484375 88.367188 "/>
<path style=" stroke:none;fill-rule:nonzero;fill:rgb(0%,0%,0%);fill-opacity:1;" d="M 427.269531 97.097656 L 427.269531 96.472656 L 430.824219 94.96875 L 430.824219 95.632812 L 428.011719 96.785156 L 430.824219 97.957031 L 430.824219 98.621094 Z M 427.269531 97.097656 "/>
<path style=" stroke:none;fill-rule:nonzero;fill:rgb(0%,0%,0%);fill-opacity:1;" d="M 431.476562 98.289062 L 432.121094 98.171875 C 432.160156 98.4375 432.261719 98.636719 432.433594 98.777344 C 432.597656 98.925781 432.832031 98.992188 433.136719 98.992188 C 433.433594 98.992188 433.652344 98.933594 433.800781 98.816406 C 433.957031 98.691406 434.035156 98.539062 434.035156 98.367188 C 434.035156 98.226562 433.964844 98.109375 433.839844 98.015625 C 433.746094 97.96875 433.515625 97.894531 433.15625 97.800781 C 432.671875 97.675781 432.335938 97.566406 432.140625 97.488281 C 431.953125 97.402344 431.8125 97.273438 431.710938 97.117188 C 431.617188 96.953125 431.574219 96.777344 431.574219 96.589844 C 431.574219 96.410156 431.613281 96.25 431.691406 96.101562 C 431.777344 95.960938 431.890625 95.839844 432.023438 95.730469 C 432.125 95.652344 432.261719 95.589844 432.433594 95.535156 C 432.613281 95.488281 432.808594 95.457031 433.019531 95.457031 C 433.316406 95.457031 433.585938 95.507812 433.820312 95.59375 C 434.054688 95.6875 434.21875 95.808594 434.328125 95.964844 C 434.445312 96.113281 434.523438 96.308594 434.5625 96.550781 L 433.917969 96.648438 C 433.878906 96.445312 433.785156 96.289062 433.644531 96.179688 C 433.511719 96.0625 433.316406 96.003906 433.058594 96.003906 C 432.753906 96.003906 432.539062 96.058594 432.414062 96.160156 C 432.28125 96.253906 432.21875 96.371094 432.21875 96.511719 C 432.21875 96.589844 432.242188 96.667969 432.296875 96.746094 C 432.34375 96.816406 432.433594 96.875 432.550781 96.921875 C 432.613281 96.9375 432.808594 96.992188 433.136719 97.078125 C 433.605469 97.210938 433.925781 97.3125 434.113281 97.390625 C 434.292969 97.46875 434.433594 97.585938 434.542969 97.742188 C 434.644531 97.890625 434.699219 98.070312 434.699219 98.289062 C 434.699219 98.515625 434.628906 98.71875 434.503906 98.914062 C 434.386719 99.109375 434.199219 99.265625 433.957031 99.382812 C 433.707031 99.488281 433.433594 99.539062 433.136719 99.539062 C 432.628906 99.539062 432.238281 99.4375 431.964844 99.226562 C 431.699219 99.007812 431.539062 98.695312 431.476562 98.289062 Z M 431.476562 98.289062 "/>
<path style=" stroke:none;fill-rule:nonzero;fill:rgb(0%,0%,0%);fill-opacity:1;" d="M 438.15625 98.191406 L 438.839844 98.269531 C 438.722656 98.675781 438.515625 98.988281 438.234375 99.207031 C 437.945312 99.433594 437.574219 99.539062 437.121094 99.539062 C 436.542969 99.539062 436.089844 99.363281 435.753906 99.011719 C 435.425781 98.660156 435.265625 98.167969 435.265625 97.527344 C 435.265625 96.878906 435.429688 96.371094 435.773438 96.003906 C 436.109375 95.644531 436.542969 95.457031 437.082031 95.457031 C 437.597656 95.457031 438.023438 95.644531 438.351562 96.003906 C 438.6875 96.355469 438.859375 96.855469 438.859375 97.488281 C 438.859375 97.527344 438.847656 97.585938 438.839844 97.664062 L 435.949219 97.664062 C 435.972656 98.09375 436.089844 98.425781 436.300781 98.660156 C 436.519531 98.886719 436.792969 98.992188 437.121094 98.992188 C 437.363281 98.992188 437.574219 98.929688 437.746094 98.796875 C 437.910156 98.671875 438.046875 98.464844 438.15625 98.191406 Z M 435.988281 97.117188 L 438.15625 97.117188 C 438.125 96.796875 438.042969 96.550781 437.902344 96.394531 C 437.691406 96.136719 437.417969 96.003906 437.082031 96.003906 C 436.777344 96.003906 436.523438 96.113281 436.320312 96.316406 C 436.125 96.511719 436.011719 96.78125 435.988281 97.117188 Z M 435.988281 97.117188 "/>
<path style=" stroke:none;fill-rule:nonzero;fill:rgb(0%,0%,0%);fill-opacity:1;" d="M 439.652344 100.925781 L 439.652344 95.554688 L 440.257812 95.554688 L 440.257812 96.0625 C 440.398438 95.867188 440.554688 95.722656 440.726562 95.613281 C 440.90625 95.511719 441.125 95.457031 441.390625 95.457031 C 441.710938 95.457031 442 95.550781 442.25 95.730469 C 442.507812 95.902344 442.703125 96.140625 442.835938 96.453125 C 442.960938 96.757812 443.03125 97.09375 443.03125 97.46875 C 443.03125 97.859375 442.957031 98.222656 442.816406 98.542969 C 442.667969 98.855469 442.464844 99.105469 442.191406 99.285156 C 441.917969 99.453125 441.628906 99.539062 441.332031 99.539062 C 441.121094 99.539062 440.925781 99.492188 440.746094 99.402344 C 440.574219 99.300781 440.433594 99.179688 440.316406 99.03125 L 440.316406 100.925781 Z M 440.257812 97.527344 C 440.257812 98.027344 440.355469 98.398438 440.550781 98.640625 C 440.753906 98.875 441.003906 98.992188 441.292969 98.992188 C 441.589844 98.992188 441.84375 98.871094 442.054688 98.621094 C 442.257812 98.378906 442.367188 97.992188 442.367188 97.46875 C 442.367188 96.976562 442.257812 96.605469 442.054688 96.355469 C 441.84375 96.113281 441.605469 95.984375 441.332031 95.984375 C 441.042969 95.984375 440.789062 96.117188 440.570312 96.375 C 440.359375 96.640625 440.257812 97.019531 440.257812 97.527344 Z M 440.257812 97.527344 "/>
<path style=" stroke:none;fill-rule:nonzero;fill:rgb(0%,0%,0%);fill-opacity:1;" d="M 447.296875 97.097656 L 443.742188 98.621094 L 443.742188 97.957031 L 446.554688 96.785156 L 443.742188 95.632812 L 443.742188 94.96875 L 447.296875 96.472656 Z M 447.296875 97.097656 "/>
<path style=" stroke:none;fill-rule:nonzero;fill:rgb(0%,0%,0%);fill-opacity:1;" d="M 193.144531 195.265625 C 193.925781 195.265625 194.335938 194.894531 194.335938 194.152344 L 194.335938 185.480469 L 188.164062 185.480469 L 188.164062 186.242188 L 193.535156 186.242188 L 193.535156 193.917969 C 193.535156 194.308594 193.339844 194.523438 192.96875 194.523438 L 191.640625 194.503906 L 191.835938 195.265625 Z M 188.417969 187.570312 L 188.417969 188.332031 L 192.753906 188.332031 L 192.753906 187.570312 Z M 188.828125 189.5625 L 188.828125 193.058594 L 192.304688 193.058594 L 192.304688 189.5625 Z M 191.542969 192.355469 L 189.609375 192.355469 L 189.609375 190.285156 L 191.542969 190.285156 Z M 185.820312 185.109375 L 185.273438 185.65625 C 186.074219 186.261719 186.71875 186.847656 187.207031 187.414062 L 187.753906 186.847656 C 187.226562 186.261719 186.582031 185.695312 185.820312 185.109375 Z M 184.492188 188.449219 L 184.492188 189.210938 L 186.132812 189.210938 L 186.132812 193.703125 C 186.132812 193.878906 186.035156 194.035156 185.878906 194.171875 L 186.191406 194.894531 C 186.894531 194.40625 187.558594 193.839844 188.183594 193.195312 L 187.96875 192.316406 C 187.578125 192.726562 187.226562 193.058594 186.914062 193.371094 L 186.914062 188.449219 Z M 184.492188 188.449219 "/>
<path style=" stroke:none;fill-rule:nonzero;fill:rgb(0%,0%,0%);fill-opacity:1;" d="M 196.933594 185.636719 L 196.933594 186.417969 L 204.707031 186.417969 L 204.707031 185.636719 Z M 196.074219 188.9375 L 196.074219 189.71875 L 198.984375 189.71875 L 198.984375 189.894531 C 198.964844 191.125 198.710938 192.121094 198.261719 192.882812 C 197.792969 193.625 196.933594 194.210938 195.722656 194.660156 L 196.171875 195.34375 C 197.421875 194.894531 198.320312 194.25 198.867188 193.429688 C 199.433594 192.53125 199.746094 191.359375 199.785156 189.894531 L 199.785156 189.71875 L 201.796875 189.71875 L 201.796875 194.09375 C 201.796875 194.796875 202.148438 195.128906 202.851562 195.128906 L 204.492188 195.128906 C 204.902344 195.128906 205.195312 195.011719 205.390625 194.796875 C 205.605469 194.523438 205.761719 193.78125 205.839844 192.550781 L 205.097656 192.316406 C 205.058594 193.332031 204.980469 193.9375 204.84375 194.152344 C 204.746094 194.308594 204.589844 194.40625 204.335938 194.40625 L 203.085938 194.40625 C 202.753906 194.40625 202.597656 194.230469 202.597656 193.917969 L 202.597656 189.71875 L 205.703125 189.71875 L 205.703125 188.9375 Z M 196.074219 188.9375 "/>
<path style=" stroke:none;fill-rule:nonzero;fill:rgb(0%,0%,0%);fill-opacity:1;" d="M 206.816406 195.265625 L 207.480469 195.1875 C 207.558594 195.570312 207.683594 195.84375 207.871094 196.007812 C 208.050781 196.164062 208.269531 196.242188 208.535156 196.242188 C 208.847656 196.242188 209.105469 196.140625 209.316406 195.929688 C 209.519531 195.710938 209.628906 195.441406 209.628906 195.128906 C 209.628906 194.816406 209.53125 194.5625 209.335938 194.367188 C 209.140625 194.171875 208.890625 194.074219 208.59375 194.074219 C 208.460938 194.074219 208.304688 194.105469 208.125 194.152344 L 208.183594 193.566406 C 208.230469 193.582031 208.269531 193.585938 208.300781 193.585938 C 208.574219 193.585938 208.816406 193.519531 209.042969 193.371094 C 209.277344 193.214844 209.394531 192.992188 209.394531 192.6875 C 209.394531 192.445312 209.304688 192.238281 209.140625 192.082031 C 208.984375 191.925781 208.773438 191.847656 208.515625 191.847656 C 208.25 191.847656 208.035156 191.925781 207.871094 192.082031 C 207.699219 192.238281 207.585938 192.484375 207.539062 192.804688 L 206.894531 192.6875 C 206.972656 192.25 207.152344 191.90625 207.441406 191.671875 C 207.722656 191.429688 208.074219 191.300781 208.496094 191.300781 C 208.792969 191.300781 209.066406 191.371094 209.316406 191.496094 C 209.558594 191.613281 209.75 191.785156 209.882812 192.003906 C 210.007812 192.230469 210.078125 192.453125 210.078125 192.6875 C 210.078125 192.921875 210.007812 193.136719 209.882812 193.332031 C 209.765625 193.519531 209.578125 193.664062 209.335938 193.78125 C 209.648438 193.859375 209.886719 194.015625 210.058594 194.25 C 210.238281 194.476562 210.332031 194.757812 210.332031 195.109375 C 210.332031 195.578125 210.160156 195.980469 209.824219 196.300781 C 209.480469 196.628906 209.050781 196.789062 208.535156 196.789062 C 208.050781 196.789062 207.65625 196.652344 207.34375 196.378906 C 207.039062 196.097656 206.863281 195.726562 206.816406 195.265625 Z M 206.816406 195.265625 "/>
<path style=" stroke:none;fill-rule:nonzero;fill:rgb(0%,0%,0%);fill-opacity:1;" d="M 12.996094 189.992188 L 12.996094 189.054688 L 18.328125 186.808594 L 18.328125 187.785156 L 14.089844 189.523438 L 18.328125 191.28125 L 18.328125 192.257812 Z M 12.996094 189.992188 "/>
<path style=" stroke:none;fill-rule:nonzero;fill:rgb(0%,0%,0%);fill-opacity:1;" d="M 23.492188 191.378906 L 24.46875 191.496094 C 24.363281 192.171875 24.089844 192.699219 23.648438 193.078125 C 23.203125 193.457031 22.664062 193.644531 22.027344 193.644531 C 21.230469 193.644531 20.59375 193.382812 20.113281 192.863281 C 19.628906 192.34375 19.390625 191.59375 19.390625 190.617188 C 19.390625 189.980469 19.492188 189.425781 19.703125 188.957031 C 19.910156 188.488281 20.222656 188.136719 20.640625 187.902344 C 21.070312 187.667969 21.539062 187.550781 22.046875 187.550781 C 22.671875 187.550781 23.183594 187.714844 23.589844 188.039062 C 23.992188 188.351562 24.253906 188.800781 24.371094 189.386719 L 23.414062 189.542969 C 23.320312 189.152344 23.160156 188.859375 22.925781 188.664062 C 22.691406 188.457031 22.410156 188.351562 22.085938 188.351562 C 21.578125 188.351562 21.167969 188.535156 20.855469 188.898438 C 20.554688 189.25 20.40625 189.808594 20.40625 190.578125 C 20.40625 191.371094 20.554688 191.945312 20.855469 192.296875 C 21.152344 192.648438 21.542969 192.824219 22.027344 192.824219 C 22.417969 192.824219 22.742188 192.707031 23.003906 192.472656 C 23.261719 192.238281 23.425781 191.875 23.492188 191.378906 Z M 23.492188 191.378906 "/>
<path style=" stroke:none;fill-rule:nonzero;fill:rgb(0%,0%,0%);fill-opacity:1;" d="M 25.289062 193.507812 L 25.289062 185.460938 L 26.265625 185.460938 L 26.265625 193.507812 Z M 25.289062 193.507812 "/>
<path style=" stroke:none;fill-rule:nonzero;fill:rgb(0%,0%,0%);fill-opacity:1;" d="M 27.417969 191.769531 L 28.394531 191.613281 C 28.441406 192.003906 28.59375 192.304688 28.84375 192.511719 C 29.101562 192.71875 29.453125 192.824219 29.898438 192.824219 C 30.351562 192.824219 30.6875 192.734375 30.914062 192.550781 C 31.132812 192.367188 31.246094 192.152344 31.246094 191.90625 C 31.246094 191.671875 31.148438 191.496094 30.953125 191.378906 C 30.804688 191.289062 30.46875 191.171875 29.9375 191.027344 C 29.203125 190.84375 28.695312 190.6875 28.414062 190.558594 C 28.140625 190.429688 27.929688 190.246094 27.789062 190.011719 C 27.640625 189.777344 27.574219 189.515625 27.574219 189.230469 C 27.574219 188.96875 27.632812 188.730469 27.75 188.507812 C 27.867188 188.285156 28.027344 188.097656 28.238281 187.941406 C 28.394531 187.835938 28.597656 187.746094 28.863281 187.667969 C 29.136719 187.589844 29.417969 187.550781 29.722656 187.550781 C 30.175781 187.550781 30.570312 187.617188 30.914062 187.746094 C 31.265625 187.875 31.523438 188.050781 31.695312 188.273438 C 31.859375 188.496094 31.976562 188.792969 32.046875 189.171875 L 31.070312 189.308594 C 31.03125 189.007812 30.898438 188.773438 30.679688 188.605469 C 30.46875 188.4375 30.175781 188.351562 29.800781 188.351562 C 29.339844 188.351562 29.019531 188.429688 28.824219 188.585938 C 28.628906 188.730469 28.53125 188.90625 28.53125 189.113281 C 28.53125 189.242188 28.570312 189.355469 28.648438 189.445312 C 28.726562 189.5625 28.851562 189.652344 29.039062 189.71875 C 29.125 189.757812 29.414062 189.84375 29.898438 189.972656 C 30.601562 190.15625 31.089844 190.304688 31.363281 190.421875 C 31.644531 190.539062 31.871094 190.714844 32.027344 190.949219 C 32.183594 191.171875 32.261719 191.449219 32.261719 191.789062 C 32.261719 192.128906 32.164062 192.441406 31.96875 192.726562 C 31.773438 193.011719 31.488281 193.242188 31.128906 193.410156 C 30.777344 193.566406 30.367188 193.644531 29.898438 193.644531 C 29.140625 193.644531 28.558594 193.488281 28.160156 193.175781 C 27.769531 192.851562 27.519531 192.382812 27.417969 191.769531 Z M 27.417969 191.769531 "/>
<path style=" stroke:none;fill-rule:nonzero;fill:rgb(0%,0%,0%);fill-opacity:1;" d="M 38.648438 189.992188 L 33.316406 192.257812 L 33.316406 191.28125 L 37.535156 189.523438 L 33.316406 187.785156 L 33.316406 186.808594 L 38.648438 189.054688 Z M 38.648438 189.992188 "/>
<path style=" stroke:none;fill-rule:nonzero;fill:rgb(0%,0%,0%);fill-opacity:1;" d="M 78.796875 195.265625 C 79.578125 195.265625 79.988281 194.894531 79.988281 194.152344 L 79.988281 185.480469 L 73.816406 185.480469 L 73.816406 186.242188 L 79.1875 186.242188 L 79.1875 193.917969 C 79.1875 194.308594 78.992188 194.523438 78.621094 194.523438 L 77.292969 194.503906 L 77.488281 195.265625 Z M 74.070312 187.570312 L 74.070312 188.332031 L 78.40625 188.332031 L 78.40625 187.570312 Z M 74.480469 189.5625 L 74.480469 193.058594 L 77.957031 193.058594 L 77.957031 189.5625 Z M 77.195312 192.355469 L 75.261719 192.355469 L 75.261719 190.285156 L 77.195312 190.285156 Z M 71.472656 185.109375 L 70.925781 185.65625 C 71.726562 186.261719 72.371094 186.847656 72.859375 187.414062 L 73.40625 186.847656 C 72.878906 186.261719 72.234375 185.695312 71.472656 185.109375 Z M 70.144531 188.449219 L 70.144531 189.210938 L 71.785156 189.210938 L 71.785156 193.703125 C 71.785156 193.878906 71.6875 194.035156 71.53125 194.171875 L 71.84375 194.894531 C 72.546875 194.40625 73.210938 193.839844 73.835938 193.195312 L 73.621094 192.316406 C 73.230469 192.726562 72.878906 193.058594 72.566406 193.371094 L 72.566406 188.449219 Z M 70.144531 188.449219 "/>
<path style=" stroke:none;fill-rule:nonzero;fill:rgb(0%,0%,0%);fill-opacity:1;" d="M 82.585938 185.636719 L 82.585938 186.417969 L 90.359375 186.417969 L 90.359375 185.636719 Z M 81.726562 188.9375 L 81.726562 189.71875 L 84.636719 189.71875 L 84.636719 189.894531 C 84.617188 191.125 84.363281 192.121094 83.914062 192.882812 C 83.445312 193.625 82.585938 194.210938 81.375 194.660156 L 81.824219 195.34375 C 83.074219 194.894531 83.972656 194.25 84.519531 193.429688 C 85.085938 192.53125 85.398438 191.359375 85.4375 189.894531 L 85.4375 189.71875 L 87.449219 189.71875 L 87.449219 194.09375 C 87.449219 194.796875 87.800781 195.128906 88.503906 195.128906 L 90.144531 195.128906 C 90.554688 195.128906 90.847656 195.011719 91.042969 194.796875 C 91.257812 194.523438 91.414062 193.78125 91.492188 192.550781 L 90.75 192.316406 C 90.710938 193.332031 90.632812 193.9375 90.496094 194.152344 C 90.398438 194.308594 90.242188 194.40625 89.988281 194.40625 L 88.738281 194.40625 C 88.40625 194.40625 88.25 194.230469 88.25 193.917969 L 88.25 189.71875 L 91.355469 189.71875 L 91.355469 188.9375 Z M 81.726562 188.9375 "/>
<path style=" stroke:none;fill-rule:nonzero;fill:rgb(0%,0%,0%);fill-opacity:1;" d="M 94.949219 196.691406 L 94.285156 196.691406 L 94.285156 192.492188 C 94.128906 192.648438 93.917969 192.804688 93.660156 192.960938 C 93.410156 193.109375 93.179688 193.214844 92.976562 193.292969 L 92.976562 192.648438 C 93.335938 192.484375 93.660156 192.273438 93.933594 192.023438 C 94.214844 191.78125 94.410156 191.535156 94.519531 191.300781 L 94.949219 191.300781 Z M 94.949219 196.691406 "/>
<path style=" stroke:none;fill-rule:nonzero;fill:rgb(0%,0%,0%);fill-opacity:1;" d="M 135.96875 195.265625 C 136.75 195.265625 137.160156 194.894531 137.160156 194.152344 L 137.160156 185.480469 L 130.988281 185.480469 L 130.988281 186.242188 L 136.359375 186.242188 L 136.359375 193.917969 C 136.359375 194.308594 136.164062 194.523438 135.792969 194.523438 L 134.464844 194.503906 L 134.660156 195.265625 Z M 131.242188 187.570312 L 131.242188 188.332031 L 135.578125 188.332031 L 135.578125 187.570312 Z M 131.652344 189.5625 L 131.652344 193.058594 L 135.128906 193.058594 L 135.128906 189.5625 Z M 134.367188 192.355469 L 132.433594 192.355469 L 132.433594 190.285156 L 134.367188 190.285156 Z M 128.644531 185.109375 L 128.097656 185.65625 C 128.898438 186.261719 129.542969 186.847656 130.03125 187.414062 L 130.578125 186.847656 C 130.050781 186.261719 129.40625 185.695312 128.644531 185.109375 Z M 127.316406 188.449219 L 127.316406 189.210938 L 128.957031 189.210938 L 128.957031 193.703125 C 128.957031 193.878906 128.859375 194.035156 128.703125 194.171875 L 129.015625 194.894531 C 129.71875 194.40625 130.382812 193.839844 131.007812 193.195312 L 130.792969 192.316406 C 130.402344 192.726562 130.050781 193.058594 129.738281 193.371094 L 129.738281 188.449219 Z M 127.316406 188.449219 "/>
<path style=" stroke:none;fill-rule:nonzero;fill:rgb(0%,0%,0%);fill-opacity:1;" d="M 139.757812 185.636719 L 139.757812 186.417969 L 147.53125 186.417969 L 147.53125 185.636719 Z M 138.898438 188.9375 L 138.898438 189.71875 L 141.808594 189.71875 L 141.808594 189.894531 C 141.789062 191.125 141.535156 192.121094 141.085938 192.882812 C 140.617188 193.625 139.757812 194.210938 138.546875 194.660156 L 138.996094 195.34375 C 140.246094 194.894531 141.144531 194.25 141.691406 193.429688 C 142.257812 192.53125 142.570312 191.359375 142.609375 189.894531 L 142.609375 189.71875 L 144.621094 189.71875 L 144.621094 194.09375 C 144.621094 194.796875 144.972656 195.128906 145.675781 195.128906 L 147.316406 195.128906 C 147.726562 195.128906 148.019531 195.011719 148.214844 194.796875 C 148.429688 194.523438 148.585938 193.78125 148.664062 192.550781 L 147.921875 192.316406 C 147.882812 193.332031 147.804688 193.9375 147.667969 194.152344 C 147.570312 194.308594 147.414062 194.40625 147.160156 194.40625 L 145.910156 194.40625 C 145.578125 194.40625 145.421875 194.230469 145.421875 193.917969 L 145.421875 189.71875 L 148.527344 189.71875 L 148.527344 188.9375 Z M 138.898438 188.9375 "/>
<path style=" stroke:none;fill-rule:nonzero;fill:rgb(0%,0%,0%);fill-opacity:1;" d="M 153.097656 196.066406 L 153.097656 196.691406 L 149.5625 196.691406 C 149.550781 196.535156 149.574219 196.390625 149.640625 196.242188 C 149.730469 196 149.875 195.753906 150.070312 195.519531 C 150.265625 195.285156 150.550781 195.011719 150.929688 194.699219 C 151.515625 194.230469 151.90625 193.859375 152.101562 193.585938 C 152.308594 193.304688 152.414062 193.035156 152.414062 192.785156 C 152.414062 192.511719 152.324219 192.292969 152.140625 192.121094 C 151.957031 191.941406 151.71875 191.847656 151.417969 191.847656 C 151.09375 191.847656 150.832031 191.945312 150.636719 192.140625 C 150.453125 192.328125 150.363281 192.585938 150.363281 192.921875 L 149.679688 192.84375 C 149.730469 192.351562 149.90625 191.976562 150.207031 191.710938 C 150.507812 191.4375 150.910156 191.300781 151.417969 191.300781 C 151.9375 191.300781 152.347656 191.449219 152.648438 191.730469 C 152.949219 192.019531 153.097656 192.371094 153.097656 192.785156 C 153.097656 193.011719 153.050781 193.226562 152.960938 193.429688 C 152.871094 193.640625 152.71875 193.859375 152.511719 194.09375 C 152.316406 194.320312 151.984375 194.632812 151.515625 195.03125 C 151.113281 195.359375 150.851562 195.578125 150.734375 195.695312 C 150.628906 195.8125 150.546875 195.941406 150.480469 196.066406 Z M 153.097656 196.066406 "/>
<path style=" stroke:none;fill-rule:nonzero;fill:rgb(0%,0%,0%);fill-opacity:1;" d="M 250.320312 195.265625 C 251.101562 195.265625 251.511719 194.894531 251.511719 194.152344 L 251.511719 185.480469 L 245.339844 185.480469 L 245.339844 186.242188 L 250.710938 186.242188 L 250.710938 193.917969 C 250.710938 194.308594 250.515625 194.523438 250.144531 194.523438 L 248.816406 194.503906 L 249.011719 195.265625 Z M 245.59375 187.570312 L 245.59375 188.332031 L 249.929688 188.332031 L 249.929688 187.570312 Z M 246.003906 189.5625 L 246.003906 193.058594 L 249.480469 193.058594 L 249.480469 189.5625 Z M 248.71875 192.355469 L 246.785156 192.355469 L 246.785156 190.285156 L 248.71875 190.285156 Z M 242.996094 185.109375 L 242.449219 185.65625 C 243.25 186.261719 243.894531 186.847656 244.382812 187.414062 L 244.929688 186.847656 C 244.402344 186.261719 243.757812 185.695312 242.996094 185.109375 Z M 241.667969 188.449219 L 241.667969 189.210938 L 243.308594 189.210938 L 243.308594 193.703125 C 243.308594 193.878906 243.210938 194.035156 243.054688 194.171875 L 243.367188 194.894531 C 244.070312 194.40625 244.734375 193.839844 245.359375 193.195312 L 245.144531 192.316406 C 244.753906 192.726562 244.402344 193.058594 244.089844 193.371094 L 244.089844 188.449219 Z M 241.667969 188.449219 "/>
<path style=" stroke:none;fill-rule:nonzero;fill:rgb(0%,0%,0%);fill-opacity:1;" d="M 254.109375 185.636719 L 254.109375 186.417969 L 261.882812 186.417969 L 261.882812 185.636719 Z M 253.25 188.9375 L 253.25 189.71875 L 256.160156 189.71875 L 256.160156 189.894531 C 256.140625 191.125 255.886719 192.121094 255.4375 192.882812 C 254.96875 193.625 254.109375 194.210938 252.898438 194.660156 L 253.347656 195.34375 C 254.597656 194.894531 255.496094 194.25 256.042969 193.429688 C 256.609375 192.53125 256.921875 191.359375 256.960938 189.894531 L 256.960938 189.71875 L 258.972656 189.71875 L 258.972656 194.09375 C 258.972656 194.796875 259.324219 195.128906 260.027344 195.128906 L 261.667969 195.128906 C 262.078125 195.128906 262.371094 195.011719 262.566406 194.796875 C 262.78125 194.523438 262.9375 193.78125 263.015625 192.550781 L 262.273438 192.316406 C 262.234375 193.332031 262.15625 193.9375 262.019531 194.152344 C 261.921875 194.308594 261.765625 194.40625 261.511719 194.40625 L 260.261719 194.40625 C 259.929688 194.40625 259.773438 194.230469 259.773438 193.917969 L 259.773438 189.71875 L 262.878906 189.71875 L 262.878906 188.9375 Z M 253.25 188.9375 "/>
<path style=" stroke:none;fill-rule:nonzero;fill:rgb(0%,0%,0%);fill-opacity:1;" d="M 266.101562 196.691406 L 266.101562 195.402344 L 263.777344 195.402344 L 263.777344 194.796875 L 266.21875 191.320312 L 266.765625 191.320312 L 266.765625 194.796875 L 267.488281 194.796875 L 267.488281 195.402344 L 266.765625 195.402344 L 266.765625 196.691406 Z M 266.101562 194.796875 L 266.101562 192.375 L 264.421875 194.796875 Z M 266.101562 194.796875 "/>
<path style=" stroke:none;fill-rule:nonzero;fill:rgb(0%,0%,0%);fill-opacity:1;" d="M 307.492188 195.265625 C 308.273438 195.265625 308.683594 194.894531 308.683594 194.152344 L 308.683594 185.480469 L 302.511719 185.480469 L 302.511719 186.242188 L 307.882812 186.242188 L 307.882812 193.917969 C 307.882812 194.308594 307.6875 194.523438 307.316406 194.523438 L 305.988281 194.503906 L 306.183594 195.265625 Z M 302.765625 187.570312 L 302.765625 188.332031 L 307.101562 188.332031 L 307.101562 187.570312 Z M 303.175781 189.5625 L 303.175781 193.058594 L 306.652344 193.058594 L 306.652344 189.5625 Z M 305.890625 192.355469 L 303.957031 192.355469 L 303.957031 190.285156 L 305.890625 190.285156 Z M 300.167969 185.109375 L 299.621094 185.65625 C 300.421875 186.261719 301.066406 186.847656 301.554688 187.414062 L 302.101562 186.847656 C 301.574219 186.261719 300.929688 185.695312 300.167969 185.109375 Z M 298.839844 188.449219 L 298.839844 189.210938 L 300.480469 189.210938 L 300.480469 193.703125 C 300.480469 193.878906 300.382812 194.035156 300.226562 194.171875 L 300.539062 194.894531 C 301.242188 194.40625 301.90625 193.839844 302.53125 193.195312 L 302.316406 192.316406 C 301.925781 192.726562 301.574219 193.058594 301.261719 193.371094 L 301.261719 188.449219 Z M 298.839844 188.449219 "/>
<path style=" stroke:none;fill-rule:nonzero;fill:rgb(0%,0%,0%);fill-opacity:1;" d="M 311.28125 185.636719 L 311.28125 186.417969 L 319.054688 186.417969 L 319.054688 185.636719 Z M 310.421875 188.9375 L 310.421875 189.71875 L 313.332031 189.71875 L 313.332031 189.894531 C 313.3125 191.125 313.058594 192.121094 312.609375 192.882812 C 312.140625 193.625 311.28125 194.210938 310.070312 194.660156 L 310.519531 195.34375 C 311.769531 194.894531 312.667969 194.25 313.214844 193.429688 C 313.78125 192.53125 314.09375 191.359375 314.132812 189.894531 L 314.132812 189.71875 L 316.144531 189.71875 L 316.144531 194.09375 C 316.144531 194.796875 316.496094 195.128906 317.199219 195.128906 L 318.839844 195.128906 C 319.25 195.128906 319.542969 195.011719 319.738281 194.796875 C 319.953125 194.523438 320.109375 193.78125 320.1875 192.550781 L 319.445312 192.316406 C 319.40625 193.332031 319.328125 193.9375 319.191406 194.152344 C 319.09375 194.308594 318.9375 194.40625 318.683594 194.40625 L 317.433594 194.40625 C 317.101562 194.40625 316.945312 194.230469 316.945312 193.917969 L 316.945312 189.71875 L 320.050781 189.71875 L 320.050781 188.9375 Z M 310.421875 188.9375 "/>
<path style=" stroke:none;fill-rule:nonzero;fill:rgb(0%,0%,0%);fill-opacity:1;" d="M 321.164062 195.285156 L 321.847656 195.226562 C 321.898438 195.570312 322.015625 195.824219 322.199219 195.988281 C 322.394531 196.160156 322.621094 196.242188 322.882812 196.242188 C 323.207031 196.242188 323.476562 196.125 323.683594 195.890625 C 323.90625 195.648438 324.015625 195.324219 324.015625 194.933594 C 324.015625 194.558594 323.910156 194.265625 323.703125 194.054688 C 323.496094 193.835938 323.222656 193.722656 322.882812 193.722656 C 322.660156 193.722656 322.464844 193.773438 322.296875 193.859375 C 322.128906 193.953125 321.996094 194.074219 321.90625 194.230469 L 321.28125 194.152344 L 321.808594 191.398438 L 324.464844 191.398438 L 324.464844 192.023438 L 322.335938 192.023438 L 322.042969 193.46875 C 322.367188 193.25 322.707031 193.136719 323.058594 193.136719 C 323.527344 193.136719 323.917969 193.304688 324.230469 193.625 C 324.554688 193.953125 324.71875 194.367188 324.71875 194.875 C 324.71875 195.359375 324.574219 195.773438 324.289062 196.125 C 323.949219 196.570312 323.480469 196.789062 322.882812 196.789062 C 322.402344 196.789062 322.003906 196.652344 321.691406 196.378906 C 321.378906 196.105469 321.203125 195.746094 321.164062 195.285156 Z M 321.164062 195.285156 "/>
<path style=" stroke:none;fill-rule:nonzero;fill:rgb(0%,0%,0%);fill-opacity:1;" d="M 364.667969 195.265625 C 365.449219 195.265625 365.859375 194.894531 365.859375 194.152344 L 365.859375 185.480469 L 359.6875 185.480469 L 359.6875 186.242188 L 365.058594 186.242188 L 365.058594 193.917969 C 365.058594 194.308594 364.863281 194.523438 364.492188 194.523438 L 363.164062 194.503906 L 363.359375 195.265625 Z M 359.941406 187.570312 L 359.941406 188.332031 L 364.277344 188.332031 L 364.277344 187.570312 Z M 360.351562 189.5625 L 360.351562 193.058594 L 363.828125 193.058594 L 363.828125 189.5625 Z M 363.066406 192.355469 L 361.132812 192.355469 L 361.132812 190.285156 L 363.066406 190.285156 Z M 357.34375 185.109375 L 356.796875 185.65625 C 357.597656 186.261719 358.242188 186.847656 358.730469 187.414062 L 359.277344 186.847656 C 358.75 186.261719 358.105469 185.695312 357.34375 185.109375 Z M 356.015625 188.449219 L 356.015625 189.210938 L 357.65625 189.210938 L 357.65625 193.703125 C 357.65625 193.878906 357.558594 194.035156 357.402344 194.171875 L 357.714844 194.894531 C 358.417969 194.40625 359.082031 193.839844 359.707031 193.195312 L 359.492188 192.316406 C 359.101562 192.726562 358.75 193.058594 358.4375 193.371094 L 358.4375 188.449219 Z M 356.015625 188.449219 "/>
<path style=" stroke:none;fill-rule:nonzero;fill:rgb(0%,0%,0%);fill-opacity:1;" d="M 368.457031 185.636719 L 368.457031 186.417969 L 376.230469 186.417969 L 376.230469 185.636719 Z M 367.597656 188.9375 L 367.597656 189.71875 L 370.507812 189.71875 L 370.507812 189.894531 C 370.488281 191.125 370.234375 192.121094 369.785156 192.882812 C 369.316406 193.625 368.457031 194.210938 367.246094 194.660156 L 367.695312 195.34375 C 368.945312 194.894531 369.84375 194.25 370.390625 193.429688 C 370.957031 192.53125 371.269531 191.359375 371.308594 189.894531 L 371.308594 189.71875 L 373.320312 189.71875 L 373.320312 194.09375 C 373.320312 194.796875 373.671875 195.128906 374.375 195.128906 L 376.015625 195.128906 C 376.425781 195.128906 376.71875 195.011719 376.914062 194.796875 C 377.128906 194.523438 377.285156 193.78125 377.363281 192.550781 L 376.621094 192.316406 C 376.582031 193.332031 376.503906 193.9375 376.367188 194.152344 C 376.269531 194.308594 376.113281 194.40625 375.859375 194.40625 L 374.609375 194.40625 C 374.277344 194.40625 374.121094 194.230469 374.121094 193.917969 L 374.121094 189.71875 L 377.226562 189.71875 L 377.226562 188.9375 Z M 367.597656 188.9375 "/>
<path style=" stroke:none;fill-rule:nonzero;fill:rgb(0%,0%,0%);fill-opacity:1;" d="M 381.757812 192.628906 L 381.113281 192.6875 C 381.042969 192.429688 380.960938 192.238281 380.859375 192.121094 C 380.671875 191.941406 380.453125 191.847656 380.195312 191.847656 C 379.984375 191.847656 379.804688 191.90625 379.648438 192.023438 C 379.4375 192.171875 379.265625 192.390625 379.140625 192.6875 C 379.023438 192.976562 378.964844 193.386719 378.964844 193.917969 C 379.121094 193.683594 379.304688 193.507812 379.53125 193.390625 C 379.765625 193.273438 380.007812 193.214844 380.273438 193.214844 C 380.710938 193.214844 381.082031 193.382812 381.386719 193.703125 C 381.699219 194.015625 381.855469 194.4375 381.855469 194.953125 C 381.855469 195.296875 381.78125 195.609375 381.640625 195.890625 C 381.492188 196.179688 381.292969 196.398438 381.035156 196.554688 C 380.785156 196.710938 380.496094 196.789062 380.175781 196.789062 C 379.628906 196.789062 379.179688 196.589844 378.828125 196.183594 C 378.476562 195.785156 378.300781 195.109375 378.300781 194.171875 C 378.300781 193.148438 378.496094 192.390625 378.886719 191.90625 C 379.222656 191.507812 379.671875 191.300781 380.234375 191.300781 C 380.664062 191.300781 381.003906 191.417969 381.269531 191.652344 C 381.542969 191.886719 381.703125 192.214844 381.757812 192.628906 Z M 379.0625 194.953125 C 379.0625 195.179688 379.105469 195.394531 379.199219 195.597656 C 379.300781 195.808594 379.4375 195.96875 379.609375 196.085938 C 379.789062 196.195312 379.96875 196.242188 380.15625 196.242188 C 380.4375 196.242188 380.683594 196.136719 380.878906 195.910156 C 381.074219 195.675781 381.171875 195.375 381.171875 194.992188 C 381.171875 194.617188 381.074219 194.324219 380.878906 194.113281 C 380.683594 193.894531 380.433594 193.78125 380.136719 193.78125 C 379.832031 193.78125 379.578125 193.894531 379.375 194.113281 C 379.164062 194.324219 379.0625 194.601562 379.0625 194.953125 Z M 379.0625 194.953125 "/>
<path style=" stroke:none;fill-rule:nonzero;fill:rgb(0%,0%,0%);fill-opacity:1;" d="M 411.023438 189.992188 L 411.023438 189.054688 L 416.355469 186.808594 L 416.355469 187.785156 L 412.117188 189.523438 L 416.355469 191.28125 L 416.355469 192.257812 Z M 411.023438 189.992188 "/>
<path style=" stroke:none;fill-rule:nonzero;fill:rgb(0%,0%,0%);fill-opacity:1;" d="M 417.320312 191.769531 L 418.296875 191.613281 C 418.34375 192.003906 418.496094 192.304688 418.746094 192.511719 C 419.003906 192.71875 419.355469 192.824219 419.800781 192.824219 C 420.253906 192.824219 420.589844 192.734375 420.816406 192.550781 C 421.035156 192.367188 421.148438 192.152344 421.148438 191.90625 C 421.148438 191.671875 421.050781 191.496094 420.855469 191.378906 C 420.707031 191.289062 420.371094 191.171875 419.839844 191.027344 C 419.105469 190.84375 418.597656 190.6875 418.316406 190.558594 C 418.042969 190.429688 417.832031 190.246094 417.691406 190.011719 C 417.542969 189.777344 417.476562 189.515625 417.476562 189.230469 C 417.476562 188.96875 417.535156 188.730469 417.652344 188.507812 C 417.769531 188.285156 417.929688 188.097656 418.140625 187.941406 C 418.296875 187.835938 418.5 187.746094 418.765625 187.667969 C 419.039062 187.589844 419.320312 187.550781 419.625 187.550781 C 420.078125 187.550781 420.472656 187.617188 420.816406 187.746094 C 421.167969 187.875 421.425781 188.050781 421.597656 188.273438 C 421.761719 188.496094 421.878906 188.792969 421.949219 189.171875 L 420.972656 189.308594 C 420.933594 189.007812 420.800781 188.773438 420.582031 188.605469 C 420.371094 188.4375 420.078125 188.351562 419.703125 188.351562 C 419.242188 188.351562 418.921875 188.429688 418.726562 188.585938 C 418.53125 188.730469 418.433594 188.90625 418.433594 189.113281 C 418.433594 189.242188 418.472656 189.355469 418.550781 189.445312 C 418.628906 189.5625 418.753906 189.652344 418.941406 189.71875 C 419.027344 189.757812 419.316406 189.84375 419.800781 189.972656 C 420.503906 190.15625 420.992188 190.304688 421.265625 190.421875 C 421.546875 190.539062 421.773438 190.714844 421.929688 190.949219 C 422.085938 191.171875 422.164062 191.449219 422.164062 191.789062 C 422.164062 192.128906 422.066406 192.441406 421.871094 192.726562 C 421.675781 193.011719 421.390625 193.242188 421.03125 193.410156 C 420.679688 193.566406 420.269531 193.644531 419.800781 193.644531 C 419.042969 193.644531 418.460938 193.488281 418.0625 193.175781 C 417.671875 192.851562 417.421875 192.382812 417.320312 191.769531 Z M 417.320312 191.769531 "/>
<path style=" stroke:none;fill-rule:nonzero;fill:rgb(0%,0%,0%);fill-opacity:1;" d="M 427.320312 191.632812 L 428.355469 191.75 C 428.183594 192.347656 427.875 192.816406 427.4375 193.15625 C 427.007812 193.480469 426.449219 193.644531 425.777344 193.644531 C 424.925781 193.644531 424.253906 193.382812 423.746094 192.863281 C 423.246094 192.328125 423.003906 191.585938 423.003906 190.636719 C 423.003906 189.660156 423.257812 188.90625 423.765625 188.371094 C 424.273438 187.824219 424.925781 187.550781 425.738281 187.550781 C 426.519531 187.550781 427.148438 187.816406 427.632812 188.351562 C 428.125 188.871094 428.375 189.613281 428.375 190.578125 C 428.375 190.644531 428.375 190.734375 428.375 190.851562 L 424.019531 190.851562 C 424.058594 191.488281 424.238281 191.976562 424.566406 192.316406 C 424.886719 192.65625 425.296875 192.824219 425.796875 192.824219 C 426.15625 192.824219 426.464844 192.734375 426.714844 192.550781 C 426.972656 192.355469 427.171875 192.050781 427.320312 191.632812 Z M 424.078125 190.03125 L 427.339844 190.03125 C 427.300781 189.535156 427.171875 189.164062 426.96875 188.917969 C 426.65625 188.539062 426.246094 188.351562 425.738281 188.351562 C 425.277344 188.351562 424.898438 188.507812 424.585938 188.820312 C 424.28125 189.121094 424.117188 189.523438 424.078125 190.03125 Z M 424.078125 190.03125 "/>
<path style=" stroke:none;fill-rule:nonzero;fill:rgb(0%,0%,0%);fill-opacity:1;" d="M 429.59375 195.734375 L 429.59375 187.667969 L 430.492188 187.667969 L 430.492188 188.429688 C 430.695312 188.128906 430.929688 187.910156 431.195312 187.765625 C 431.46875 187.621094 431.800781 187.550781 432.191406 187.550781 C 432.683594 187.550781 433.117188 187.679688 433.5 187.941406 C 433.875 188.1875 434.164062 188.546875 434.359375 189.015625 C 434.554688 189.484375 434.652344 189.992188 434.652344 190.539062 C 434.652344 191.136719 434.539062 191.679688 434.320312 192.160156 C 434.109375 192.640625 433.800781 193.011719 433.402344 193.273438 C 432.996094 193.515625 432.566406 193.644531 432.113281 193.644531 C 431.785156 193.644531 431.492188 193.570312 431.234375 193.429688 C 430.96875 193.285156 430.753906 193.109375 430.589844 192.902344 L 430.589844 195.734375 Z M 430.492188 190.617188 C 430.492188 191.371094 430.636719 191.933594 430.941406 192.296875 C 431.253906 192.648438 431.625 192.824219 432.054688 192.824219 C 432.484375 192.824219 432.855469 192.640625 433.167969 192.277344 C 433.488281 191.898438 433.65625 191.320312 433.65625 190.539062 C 433.65625 189.796875 433.5 189.242188 433.1875 188.878906 C 432.882812 188.5 432.523438 188.3125 432.09375 188.3125 C 431.671875 188.3125 431.300781 188.515625 430.980469 188.917969 C 430.652344 189.308594 430.492188 189.875 430.492188 190.617188 Z M 430.492188 190.617188 "/>
<path style=" stroke:none;fill-rule:nonzero;fill:rgb(0%,0%,0%);fill-opacity:1;" d="M 441.0625 189.992188 L 435.730469 192.257812 L 435.730469 191.28125 L 439.949219 189.523438 L 435.730469 187.785156 L 435.730469 186.808594 L 441.0625 189.054688 Z M 441.0625 189.992188 "/>
<path style="fill:none;stroke-width:1;stroke-linecap:round;stroke-linejoin:round;stroke:rgb(0%,0%,0%);stroke-opacity:1;stroke-miterlimit:10;" d="M 128.653125 93.453125 L 128.653125 36.55 " transform="matrix(1.25,0,0,1.25,-135,63.75)"/>
<path style="fill:none;stroke-width:1;stroke-linecap:butt;stroke-linejoin:miter;stroke:rgb(0%,0%,0%);stroke-opacity:1;stroke-miterlimit:10;" d="M 128.653125 32.55 L 128.653125 36.55 M 127.153125 36.55 L 128.653125 32.55 L 130.153125 36.55 " transform="matrix(1.25,0,0,1.25,-135,63.75)"/>
<path style="fill:none;stroke-width:1;stroke-linecap:round;stroke-linejoin:round;stroke:rgb(0%,0%,0%);stroke-opacity:1;stroke-miterlimit:10;" d="M 220.13125 93.453125 L 220.13125 36.55 " transform="matrix(1.25,0,0,1.25,-135,63.75)"/>
<path style="fill:none;stroke-width:1;stroke-linecap:butt;stroke-linejoin:miter;stroke:rgb(0%,0%,0%);stroke-opacity:1;stroke-miterlimit:10;" d="M 220.13125 32.55 L 220.13125 36.55 M 218.63125 36.55 L 220.13125 32.55 L 221.63125 36.55 " transform="matrix(1.25,0,0,1.25,-135,63.75)"/>
<path style="fill:none;stroke-width:1;stroke-linecap:round;stroke-linejoin:round;stroke:rgb(0%,0%,0%);stroke-opacity:1;stroke-miterlimit:10;" d="M 265.871875 93.453125 L 265.871875 36.55 " transform="matrix(1.25,0,0,1.25,-135,63.75)"/>
<path style="fill:none;stroke-width:1;stroke-linecap:butt;stroke-linejoin:miter;stroke:rgb(0%,0%,0%);stroke-opacity:1;stroke-miterlimit:10;" d="M 265.871875 32.55 L 265.871875 36.55 M 264.371875 36.55 L 265.871875 32.55 L 267.371875 36.55 " transform="matrix(1.25,0,0,1.25,-135,63.75)"/>
<path style="fill:none;stroke-width:1;stroke-linecap:round;stroke-linejoin:round;stroke:rgb(0%,0%,0%);stroke-opacity:1;stroke-miterlimit:10;" d="M 311.609375 93.453125 L 311.609375 36.55 " transform="matrix(1.25,0,0,1.25,-135,63.75)"/>
<path style="fill:none;stroke-width:1;stroke-linecap:butt;stroke-linejoin:miter;stroke:rgb(0%,0%,0%);stroke-opacity:1;stroke-miterlimit:10;" d="M 311.609375 32.55 L 311.609375 36.55 M 310.109375 36.55 L 311.609375 32.55 L 313.109375 36.55 " transform="matrix(1.25,0,0,1.25,-135,63.75)"/>
<path style="fill:none;stroke-width:1;stroke-linecap:round;stroke-linejoin:round;stroke:rgb(0%,0%,0%);stroke-opacity:1;stroke-miterlimit:10;" d="M 357.35 93.453125 L 357.35 36.55 " transform="matrix(1.25,0,0,1.25,-135,63.75)"/>
<path style="fill:none;stroke-width:1;stroke-linecap:butt;stroke-linejoin:miter;stroke:rgb(0%,0%,0%);stroke-opacity:1;stroke-miterlimit:10;" d="M 357.35 32.55 L 357.35 36.55 M 355.85 36.55 L 357.35 32.55 L 358.85 36.55 " transform="matrix(1.25,0,0,1.25,-135,63.75)"/>
<path style="fill:none;stroke-width:1;stroke-linecap:round;stroke-linejoin:round;stroke:rgb(0%,0%,0%);stroke-opacity:1;stroke-miterlimit:10;" d="M 403.090625 93.453125 L 403.090625 36.55 " transform="matrix(1.25,0,0,1.25,-135,63.75)"/>
<path style="fill:none;stroke-width:1;stroke-linecap:butt;stroke-linejoin:miter;stroke:rgb(0%,0%,0%);stroke-opacity:1;stroke-miterlimit:10;" d="M 403.090625 32.55 L 403.090625 36.55 M 401.590625 36.55 L 403.090625 32.55 L 404.590625 36.55 " transform="matrix(1.25,0,0,1.25,-135,63.75)"/>
<path style="fill:none;stroke-width:1;stroke-linecap:round;stroke-linejoin:round;stroke:rgb(0%,0%,0%);stroke-opacity:1;stroke-miterlimit:10;" d="M 448.828125 93.453125 L 448.828125 36.55 " transform="matrix(1.25,0,0,1.25,-135,63.75)"/>
<path style="fill:none;stroke-width:1;stroke-linecap:butt;stroke-linejoin:miter;stroke:rgb(0%,0%,0%);stroke-opacity:1;stroke-miterlimit:10;" d="M 448.828125 32.55 L 448.828125 36.55 M 447.328125 36.55 L 448.828125 32.55 L 450.328125 36.55 " transform="matrix(1.25,0,0,1.25,-135,63.75)"/>
<path style=" stroke:none;fill-rule:nonzero;fill:rgb(69.803922%,85.098039%,100%);fill-opacity:1;" d="M 1.5 161.9375 L 450.351562 161.9375 L 450.351562 120.6875 L 1.5 120.6875 Z M 1.5 161.9375 "/>
<path style="fill:none;stroke-width:1;stroke-linecap:round;stroke-linejoin:round;stroke:rgb(0%,0%,0%);stroke-opacity:1;stroke-miterlimit:10;" d="M 109.2 45.55 L 468.28125 45.55 L 468.28125 78.55 L 109.2 78.55 Z M 109.2 45.55 " transform="matrix(1.25,0,0,1.25,-135,63.75)"/>
<path style=" stroke:none;fill-rule:nonzero;fill:rgb(0%,0%,0%);fill-opacity:1;" d="M 211.847656 144.882812 L 211.847656 136.835938 L 214.875 136.835938 C 215.484375 136.835938 215.972656 136.921875 216.339844 137.089844 C 216.714844 137.246094 217.007812 137.492188 217.21875 137.832031 C 217.4375 138.171875 217.550781 138.523438 217.550781 138.886719 C 217.550781 139.238281 217.453125 139.5625 217.257812 139.863281 C 217.070312 140.164062 216.792969 140.410156 216.417969 140.605469 C 216.894531 140.75 217.265625 140.988281 217.53125 141.328125 C 217.804688 141.667969 217.941406 142.070312 217.941406 142.539062 C 217.941406 142.917969 217.851562 143.269531 217.6875 143.59375 C 217.53125 143.917969 217.335938 144.171875 217.101562 144.355469 C 216.867188 144.523438 216.574219 144.65625 216.222656 144.746094 C 215.871094 144.835938 215.429688 144.882812 214.914062 144.882812 Z M 212.921875 140.214844 L 214.660156 140.214844 C 215.128906 140.214844 215.464844 140.183594 215.675781 140.117188 C 215.949219 140.039062 216.148438 139.910156 216.28125 139.726562 C 216.421875 139.53125 216.496094 139.296875 216.496094 139.023438 C 216.496094 138.75 216.425781 138.515625 216.300781 138.320312 C 216.167969 138.113281 215.988281 137.96875 215.753906 137.890625 C 215.519531 137.8125 215.109375 137.773438 214.523438 137.773438 L 212.921875 137.773438 Z M 212.921875 143.925781 L 214.914062 143.925781 C 215.265625 143.925781 215.507812 143.914062 215.65625 143.886719 C 215.890625 143.847656 216.089844 143.777344 216.261719 143.671875 C 216.425781 143.566406 216.5625 143.417969 216.671875 143.222656 C 216.773438 143.027344 216.828125 142.800781 216.828125 142.539062 C 216.828125 142.238281 216.75 141.980469 216.59375 141.757812 C 216.4375 141.535156 216.222656 141.386719 215.949219 141.308594 C 215.675781 141.21875 215.285156 141.171875 214.777344 141.171875 L 212.921875 141.171875 Z M 212.921875 143.925781 "/>
<path style=" stroke:none;fill-rule:nonzero;fill:rgb(0%,0%,0%);fill-opacity:1;" d="M 219.429688 144.882812 L 219.429688 136.835938 L 225.25 136.835938 L 225.25 137.773438 L 220.484375 137.773438 L 220.484375 140.253906 L 224.9375 140.253906 L 224.9375 141.191406 L 220.484375 141.191406 L 220.484375 143.925781 L 225.425781 143.925781 L 225.425781 144.882812 Z M 219.429688 144.882812 "/>
<path style=" stroke:none;fill-rule:nonzero;fill:rgb(0%,0%,0%);fill-opacity:1;" d="M 226.914062 144.882812 L 226.914062 136.835938 L 230.488281 136.835938 C 231.199219 136.835938 231.746094 136.90625 232.128906 137.050781 C 232.503906 137.195312 232.800781 137.449219 233.027344 137.8125 C 233.246094 138.175781 233.359375 138.582031 233.359375 139.023438 C 233.359375 139.597656 233.167969 140.078125 232.792969 140.46875 C 232.425781 140.859375 231.859375 141.105469 231.09375 141.210938 C 231.367188 141.355469 231.582031 141.492188 231.738281 141.621094 C 232.050781 141.90625 232.34375 142.265625 232.617188 142.695312 L 234.023438 144.882812 L 232.675781 144.882812 L 231.601562 143.203125 C 231.296875 142.722656 231.042969 142.355469 230.839844 142.109375 C 230.644531 141.847656 230.457031 141.667969 230.292969 141.5625 C 230.136719 141.457031 229.980469 141.386719 229.824219 141.347656 C 229.691406 141.320312 229.492188 141.308594 229.21875 141.308594 L 227.988281 141.308594 L 227.988281 144.882812 Z M 227.988281 140.390625 L 230.273438 140.390625 C 230.765625 140.390625 231.152344 140.339844 231.425781 140.234375 C 231.699219 140.128906 231.902344 139.96875 232.050781 139.746094 C 232.191406 139.523438 232.265625 139.285156 232.265625 139.023438 C 232.265625 138.644531 232.117188 138.332031 231.835938 138.085938 C 231.5625 137.839844 231.121094 137.714844 230.527344 137.714844 L 227.988281 137.714844 Z M 227.988281 140.390625 "/>
<path style=" stroke:none;fill-rule:nonzero;fill:rgb(0%,0%,0%);fill-opacity:1;" d="M 236.863281 144.882812 L 236.863281 137.773438 L 234.226562 137.773438 L 234.226562 136.835938 L 240.59375 136.835938 L 240.59375 137.773438 L 237.9375 137.773438 L 237.9375 144.882812 Z M 236.863281 144.882812 "/>
<path style=" stroke:none;fill-rule:nonzero;fill:rgb(40%,74.901961%,100%);fill-opacity:1;" d="M 1.5 64.691406 L 50.132812 64.691406 L 50.132812 38.125 L 1.5 38.125 Z M 1.5 64.691406 "/>
<path style="fill:none;stroke-width:1;stroke-linecap:round;stroke-linejoin:round;stroke:rgb(0%,0%,0%);stroke-opacity:1;stroke-miterlimit:10;" d="M 109.2 -20.5 L 148.10625 -20.5 L 148.10625 0.753125 L 109.2 0.753125 Z M 109.2 -20.5 " transform="matrix(1.25,0,0,1.25,-135,63.75)"/>
<path style=" stroke:none;fill-rule:nonzero;fill:rgb(0%,0%,0%);fill-opacity:1;" d="M 14.996094 49.082031 L 14.996094 49.765625 L 16.089844 49.765625 L 16.089844 50.839844 L 14.878906 50.839844 L 14.878906 51.523438 L 18.0625 51.523438 L 18.0625 50.839844 L 16.851562 50.839844 L 16.851562 49.765625 L 17.886719 49.765625 L 17.886719 49.082031 L 16.851562 49.082031 L 16.851562 48.203125 L 16.089844 48.203125 L 16.089844 49.082031 Z M 15.132812 52.285156 L 15.132812 55.195312 L 17.789062 55.195312 L 17.789062 52.285156 Z M 17.125 54.53125 L 15.796875 54.53125 L 15.796875 52.929688 L 17.125 52.929688 Z M 9.722656 48.164062 C 10.210938 48.105469 10.679688 48.046875 11.128906 47.96875 L 11.128906 49.667969 L 9.585938 49.667969 L 9.585938 50.449219 L 11.070312 50.449219 C 10.699219 51.679688 10.132812 52.792969 9.332031 53.769531 L 9.683594 54.6875 C 10.289062 53.808594 10.757812 52.851562 11.128906 51.796875 L 11.128906 56.855469 L 11.890625 56.855469 L 11.890625 51.679688 C 12.183594 52.128906 12.554688 52.695312 12.964844 53.398438 L 13.414062 52.714844 C 12.90625 52.070312 12.398438 51.503906 11.890625 50.976562 L 11.890625 50.449219 L 13.179688 50.449219 L 13.179688 49.667969 L 11.890625 49.667969 L 11.890625 47.792969 C 12.359375 47.675781 12.789062 47.578125 13.199219 47.441406 L 12.90625 46.660156 C 11.949219 47.03125 10.816406 47.285156 9.566406 47.402344 Z M 19.3125 47.03125 L 13.628906 47.03125 L 13.628906 53.203125 C 13.628906 54.492188 13.375 55.546875 12.886719 56.386719 L 13.53125 56.953125 C 14.097656 55.976562 14.371094 54.707031 14.390625 53.164062 L 14.390625 47.773438 L 18.550781 47.773438 L 18.550781 55.644531 C 18.550781 55.976562 18.394531 56.132812 18.101562 56.132812 C 17.808594 56.132812 17.496094 56.132812 17.164062 56.113281 L 17.359375 56.855469 L 18.355469 56.855469 C 18.980469 56.855469 19.3125 56.542969 19.3125 55.917969 Z M 19.3125 47.03125 "/>
<path style=" stroke:none;fill-rule:nonzero;fill:rgb(0%,0%,0%);fill-opacity:1;" d="M 30.523438 47.519531 L 26.265625 47.519531 C 26.148438 47.148438 26.03125 46.835938 25.914062 46.542969 L 25.054688 46.679688 C 25.191406 46.933594 25.328125 47.207031 25.445312 47.519531 L 21.109375 47.519531 L 21.109375 49.804688 L 21.910156 49.804688 L 21.910156 48.242188 L 29.722656 48.242188 L 29.722656 49.804688 L 30.523438 49.804688 Z M 25.445312 53.476562 L 25.445312 55.683594 L 22.730469 55.683594 L 22.730469 53.847656 L 21.929688 53.847656 L 21.929688 56.914062 L 22.730469 56.914062 L 22.730469 56.425781 L 29.058594 56.425781 L 29.058594 56.914062 L 29.859375 56.914062 L 29.859375 53.75 L 29.058594 53.75 L 29.058594 55.683594 L 26.246094 55.683594 L 26.246094 53.476562 Z M 25.289062 48.476562 L 24.683594 48.847656 C 25.191406 49.355469 25.582031 49.804688 25.875 50.214844 L 26.460938 49.804688 C 26.207031 49.433594 25.796875 48.984375 25.289062 48.476562 Z M 28.160156 48.730469 C 27.203125 49.863281 26.011719 50.820312 24.527344 51.601562 L 24.527344 49.6875 L 23.765625 49.6875 L 23.765625 51.972656 C 22.828125 52.402344 21.832031 52.753906 20.699219 53.066406 L 21.011719 53.75 C 22.046875 53.457031 23.023438 53.125 23.921875 52.734375 C 24.078125 53.007812 24.371094 53.144531 24.800781 53.144531 L 27.359375 53.144531 C 27.828125 53.144531 28.140625 53.046875 28.355469 52.871094 C 28.589844 52.695312 28.746094 52.167969 28.84375 51.289062 L 28.082031 51.035156 C 28.023438 51.699219 27.925781 52.109375 27.789062 52.246094 C 27.671875 52.34375 27.476562 52.402344 27.222656 52.402344 L 25.035156 52.402344 C 24.917969 52.402344 24.820312 52.382812 24.742188 52.34375 C 26.363281 51.503906 27.710938 50.449219 28.746094 49.179688 Z M 29.136719 49.863281 L 28.570312 50.273438 C 29.253906 51.09375 29.820312 51.875 30.269531 52.617188 L 30.914062 52.167969 C 30.503906 51.503906 29.917969 50.742188 29.136719 49.863281 Z M 22.652344 49.277344 C 22.359375 50.15625 21.910156 50.957031 21.265625 51.679688 L 21.929688 52.089844 C 22.535156 51.347656 23.023438 50.46875 23.355469 49.433594 Z M 22.652344 49.277344 "/>
<path style=" stroke:none;fill-rule:nonzero;fill:rgb(0%,0%,0%);fill-opacity:1;" d="M 35.09375 50.898438 L 35.09375 51.621094 L 41.1875 51.621094 L 41.1875 50.898438 Z M 34.292969 52.734375 L 34.292969 53.476562 L 36.753906 53.476562 C 35.972656 54.746094 35.308594 55.527344 34.820312 55.820312 C 34.761719 55.839844 34.722656 55.878906 34.644531 55.898438 L 34.820312 56.582031 C 36.949219 56.445312 38.902344 56.25 40.679688 56.015625 C 40.914062 56.289062 41.109375 56.582031 41.304688 56.875 L 41.949219 56.425781 C 41.460938 55.703125 40.738281 54.84375 39.820312 53.867188 L 39.214844 54.238281 C 39.546875 54.628906 39.878906 55 40.191406 55.371094 C 38.746094 55.585938 37.28125 55.742188 35.796875 55.839844 C 36.324219 55.371094 36.929688 54.570312 37.613281 53.476562 L 41.929688 53.476562 L 41.929688 52.734375 Z M 40.5625 47.792969 L 40.5625 49.101562 L 33.941406 49.101562 L 33.941406 47.792969 Z M 33.941406 49.824219 L 41.34375 49.824219 L 41.34375 47.03125 L 33.160156 47.03125 L 33.160156 50.761719 C 33.140625 53.027344 32.75 54.863281 31.96875 56.289062 L 32.554688 56.835938 C 33.472656 55.136719 33.941406 53.105469 33.941406 50.761719 Z M 33.941406 49.824219 "/>
<path style="fill:none;stroke-width:1;stroke-linecap:round;stroke-linejoin:round;stroke:rgb(0%,0%,0%);stroke-opacity:1;stroke-miterlimit:10;" d="M 128.653125 15.653125 L 128.653125 6.653125 " transform="matrix(1.25,0,0,1.25,-135,63.75)"/>
<path style="fill:none;stroke-width:1;stroke-linecap:butt;stroke-linejoin:miter;stroke:rgb(0%,0%,0%);stroke-opacity:1;stroke-miterlimit:10;" d="M 128.653125 2.653125 L 128.653125 6.653125 M 127.153125 6.653125 L 128.653125 2.653125 L 130.153125 6.653125 " transform="matrix(1.25,0,0,1.25,-135,63.75)"/>
<path style="fill:none;stroke-width:1;stroke-linecap:round;stroke-linejoin:round;stroke:rgb(0%,0%,0%);stroke-opacity:1;stroke-miterlimit:10;" d="M 128.79375 -20.5 L 128.921875 -30.35 " transform="matrix(1.25,0,0,1.25,-135,63.75)"/>
<path style="fill:none;stroke-width:1;stroke-linecap:butt;stroke-linejoin:miter;stroke:rgb(0%,0%,0%);stroke-opacity:1;stroke-miterlimit:10;" d="M 128.975 -34.35 L 128.921875 -30.35 M 127.421875 -30.371875 L 128.975 -34.35 L 130.421875 -30.33125 " transform="matrix(1.25,0,0,1.25,-135,63.75)"/>
<path style=" stroke:none;fill-rule:nonzero;fill:rgb(0%,0%,0%);fill-opacity:1;" d="M 16.714844 5.339844 L 16.714844 7.46875 L 15.347656 7.46875 L 15.347656 8.25 L 16.714844 8.25 C 16.363281 9.65625 15.796875 10.925781 14.976562 12.039062 L 15.328125 12.917969 C 15.894531 12.039062 16.363281 11.0625 16.714844 10.007812 L 16.714844 15.613281 L 17.515625 15.613281 L 17.515625 9.96875 C 17.847656 10.398438 18.238281 10.964844 18.707031 11.667969 L 19.175781 10.984375 C 18.609375 10.300781 18.0625 9.675781 17.515625 9.109375 L 17.515625 8.25 L 18.824219 8.25 L 18.824219 7.46875 L 17.515625 7.46875 L 17.515625 5.339844 Z M 20.035156 10.417969 C 19.722656 11.824219 19.214844 13.074219 18.511719 14.226562 L 19.214844 14.675781 C 19.878906 13.523438 20.425781 12.175781 20.777344 10.59375 Z M 24.097656 10.378906 L 23.375 10.613281 C 23.804688 11.824219 24.214844 13.210938 24.585938 14.773438 L 25.328125 14.441406 C 24.976562 12.996094 24.585938 11.648438 24.097656 10.378906 Z M 21.578125 15.496094 C 22.242188 15.496094 22.574219 15.164062 22.574219 14.5 L 22.574219 9.5 L 25.328125 9.5 L 25.328125 8.71875 L 19.019531 8.71875 L 19.019531 9.5 L 21.773438 9.5 L 21.773438 14.304688 C 21.773438 14.617188 21.617188 14.792969 21.304688 14.792969 C 20.972656 14.792969 20.640625 14.773438 20.289062 14.753906 L 20.445312 15.496094 Z M 19.625 5.984375 L 19.625 6.746094 L 24.742188 6.746094 L 24.742188 5.984375 Z M 19.625 5.984375 "/>
<path style=" stroke:none;fill-rule:nonzero;fill:rgb(0%,0%,0%);fill-opacity:1;" d="M 34.078125 11.746094 C 33.746094 12.820312 33.355469 13.71875 32.90625 14.480469 L 26.714844 14.480469 L 26.714844 15.242188 L 36.207031 15.242188 L 36.207031 14.480469 L 33.785156 14.480469 C 34.214844 13.738281 34.566406 12.898438 34.859375 11.960938 Z M 28.6875 11.882812 L 27.964844 12.117188 C 28.316406 12.78125 28.609375 13.464844 28.84375 14.1875 L 29.566406 13.992188 C 29.3125 13.210938 29.019531 12.488281 28.6875 11.882812 Z M 31.304688 11.667969 L 30.542969 11.902344 C 30.835938 12.605469 31.089844 13.328125 31.265625 14.089844 L 31.988281 13.894531 C 31.792969 13.054688 31.558594 12.3125 31.304688 11.667969 Z M 28.53125 10.59375 L 28.53125 11.296875 L 34.371094 11.296875 L 34.371094 10.59375 Z M 28.082031 7 L 28.941406 7 C 29.136719 7.429688 29.3125 7.898438 29.449219 8.367188 L 30.191406 8.09375 C 30.074219 7.761719 29.917969 7.390625 29.742188 7 L 31.363281 7 L 31.363281 6.277344 L 28.394531 6.277344 C 28.511719 6.003906 28.609375 5.730469 28.6875 5.4375 L 27.90625 5.28125 C 27.59375 6.316406 27.085938 7.253906 26.382812 8.113281 L 27.085938 8.542969 C 27.457031 8.074219 27.789062 7.566406 28.082031 7 Z M 32.808594 7 L 33.785156 7 C 34.039062 7.46875 34.273438 7.957031 34.46875 8.464844 L 35.210938 8.191406 C 35.054688 7.820312 34.878906 7.429688 34.625 7 L 36.421875 7 L 36.421875 6.277344 L 33.121094 6.277344 C 33.21875 6.003906 33.316406 5.730469 33.394531 5.4375 L 32.613281 5.28125 C 32.378906 6.160156 32.007812 6.941406 31.480469 7.664062 L 32.164062 8.09375 C 32.398438 7.761719 32.613281 7.390625 32.808594 7 Z M 31.1875 8.113281 C 29.898438 9.070312 28.277344 9.871094 26.324219 10.515625 L 26.714844 11.21875 C 28.667969 10.535156 30.25 9.714844 31.441406 8.777344 C 32.75 9.792969 34.3125 10.59375 36.148438 11.21875 L 36.558594 10.535156 C 34.722656 9.949219 33.101562 9.128906 31.695312 8.113281 Z M 31.1875 8.113281 "/>
<path style=" stroke:none;fill-rule:nonzero;fill:rgb(0%,0%,0%);fill-opacity:1;" d="M 205.070312 235.808594 L 205.070312 240.4375 L 208.585938 240.4375 L 208.585938 241.511719 L 203.996094 241.511719 L 203.996094 242.273438 L 208.585938 242.273438 L 208.585938 244.402344 L 209.40625 244.402344 L 209.40625 242.273438 L 213.996094 242.273438 L 213.996094 241.511719 L 209.40625 241.511719 L 209.40625 240.4375 L 212.921875 240.4375 L 212.921875 235.808594 L 210.753906 235.808594 C 211.105469 235.359375 211.398438 234.832031 211.671875 234.265625 L 210.890625 233.972656 C 210.597656 234.636719 210.285156 235.242188 209.914062 235.808594 Z M 212.140625 239.714844 L 209.40625 239.714844 L 209.40625 238.464844 L 212.140625 238.464844 Z M 208.585938 239.714844 L 205.851562 239.714844 L 205.851562 238.464844 L 208.585938 238.464844 Z M 205.851562 237.761719 L 205.851562 236.53125 L 208.585938 236.53125 L 208.585938 237.761719 Z M 209.40625 236.53125 L 212.140625 236.53125 L 212.140625 237.761719 L 209.40625 237.761719 Z M 207.0625 234.03125 L 206.378906 234.363281 C 206.75 234.792969 207.101562 235.261719 207.453125 235.808594 L 208.117188 235.457031 C 207.785156 234.949219 207.433594 234.460938 207.0625 234.03125 Z M 207.0625 234.03125 "/>
<path style=" stroke:none;fill-rule:nonzero;fill:rgb(0%,0%,0%);fill-opacity:1;" d="M 215.34375 235.964844 L 215.34375 236.765625 L 217.082031 236.765625 C 217.570312 238.503906 218.488281 240.007812 219.777344 241.296875 C 218.566406 242.390625 217.023438 243.191406 215.128906 243.699219 L 215.558594 244.402344 C 217.472656 243.855469 219.074219 242.996094 220.34375 241.804688 C 221.554688 242.859375 223.097656 243.71875 224.953125 244.421875 L 225.402344 243.738281 C 223.605469 243.074219 222.101562 242.253906 220.910156 241.238281 C 222.003906 240.046875 222.84375 238.542969 223.390625 236.765625 L 225.148438 236.765625 L 225.148438 235.964844 L 220.851562 235.964844 C 220.5 235.183594 220.109375 234.519531 219.679688 233.972656 L 218.878906 234.265625 C 219.328125 234.792969 219.699219 235.359375 219.992188 235.964844 Z M 217.863281 236.765625 L 222.550781 236.765625 C 222.082031 238.328125 221.339844 239.636719 220.34375 240.730469 C 219.171875 239.597656 218.351562 238.289062 217.863281 236.765625 Z M 217.863281 236.765625 "/>
<path style=" stroke:none;fill-rule:nonzero;fill:rgb(0%,0%,0%);fill-opacity:1;" d="M 226.671875 236.121094 L 226.671875 236.902344 L 230.363281 236.902344 C 229.523438 238.894531 228.175781 240.535156 226.28125 241.785156 L 226.75 242.546875 C 228.742188 241.0625 230.167969 239.1875 231.007812 236.902344 L 231.085938 236.902344 L 231.085938 241.296875 L 228.761719 241.296875 L 228.761719 242.078125 L 231.085938 242.078125 L 231.085938 244.382812 L 231.90625 244.382812 L 231.90625 242.078125 L 234.328125 242.078125 L 234.328125 241.296875 L 231.90625 241.296875 L 231.90625 236.902344 L 232.003906 236.902344 C 232.765625 238.933594 234.132812 240.769531 236.125 242.390625 L 236.671875 241.707031 C 234.738281 240.300781 233.390625 238.699219 232.628906 236.902344 L 236.300781 236.902344 L 236.300781 236.121094 L 231.90625 236.121094 L 231.90625 234.089844 L 231.085938 234.089844 L 231.085938 236.121094 Z M 226.671875 236.121094 "/>
<path style=" stroke:none;fill-rule:nonzero;fill:rgb(0%,0%,0%);fill-opacity:1;" d="M 243.175781 234.011719 L 242.355469 234.148438 C 242.511719 234.402344 242.6875 234.695312 242.824219 234.988281 L 238.585938 234.988281 L 238.585938 238.621094 C 238.566406 240.828125 238.234375 242.566406 237.589844 243.816406 L 238.195312 244.34375 C 238.957031 242.917969 239.367188 241.003906 239.40625 238.621094 L 239.40625 235.730469 L 247.707031 235.730469 L 247.707031 234.988281 L 243.644531 234.988281 C 243.488281 234.636719 243.332031 234.304688 243.175781 234.011719 Z M 242.199219 237.878906 L 241.710938 238.347656 C 242.609375 238.796875 243.351562 239.226562 243.917969 239.636719 L 239.914062 239.636719 L 239.914062 240.398438 L 243.234375 240.398438 L 243.234375 243.210938 C 243.234375 243.523438 243.078125 243.679688 242.765625 243.679688 C 242.277344 243.679688 241.75 243.660156 241.222656 243.640625 L 241.378906 244.402344 L 243.039062 244.402344 C 243.703125 244.402344 244.035156 244.050781 244.035156 243.386719 L 244.035156 240.398438 L 246.632812 240.398438 C 246.242188 241.023438 245.8125 241.570312 245.324219 242.019531 L 245.949219 242.488281 C 246.515625 241.882812 247.023438 241.140625 247.492188 240.261719 L 247.492188 239.636719 L 244.640625 239.636719 L 244.796875 239.460938 C 244.640625 239.34375 244.484375 239.226562 244.289062 239.109375 C 245.109375 238.582031 245.871094 237.957031 246.554688 237.214844 L 246.554688 236.628906 L 240.578125 236.628906 L 240.578125 237.332031 L 245.539062 237.332031 C 244.972656 237.859375 244.347656 238.308594 243.683594 238.699219 C 243.234375 238.425781 242.726562 238.132812 242.199219 237.878906 Z M 242.199219 237.878906 "/>
<path style=" stroke:none;fill-rule:nonzero;fill:rgb(0%,0%,0%);fill-opacity:1;" d="M 257.53125 244.265625 C 258.292969 244.265625 258.683594 243.875 258.683594 243.074219 L 258.683594 234.128906 L 257.863281 234.128906 L 257.863281 242.898438 C 257.863281 243.328125 257.648438 243.5625 257.238281 243.5625 C 256.789062 243.5625 256.320312 243.523438 255.8125 243.503906 L 256.007812 244.265625 Z M 255.460938 234.988281 L 255.460938 242.097656 L 256.261719 242.097656 L 256.261719 234.988281 Z M 249.171875 234.539062 L 249.171875 235.320312 L 250.929688 235.320312 C 250.695312 237.175781 250.011719 238.621094 248.917969 239.675781 L 249.289062 240.417969 C 249.601562 240.144531 249.875 239.832031 250.128906 239.5 C 250.871094 239.890625 251.535156 240.339844 252.101562 240.808594 C 251.378906 241.980469 250.382812 242.898438 249.113281 243.542969 L 249.503906 244.265625 C 252.003906 242.996094 253.527344 240.769531 254.09375 237.585938 L 254.09375 236.863281 L 251.417969 236.863281 C 251.535156 236.394531 251.652344 235.867188 251.730469 235.320312 L 254.640625 235.320312 L 254.640625 234.539062 Z M 250.539062 238.875 C 250.773438 238.484375 250.96875 238.09375 251.144531 237.644531 L 253.3125 237.644531 C 253.136719 238.542969 252.84375 239.382812 252.472656 240.125 C 251.90625 239.695312 251.28125 239.285156 250.539062 238.875 Z M 250.539062 238.875 "/>
<path style="fill:none;stroke-width:1;stroke-linecap:round;stroke-linejoin:round;stroke:rgb(0%,0%,0%);stroke-opacity:1;stroke-dasharray:4,4;stroke-miterlimit:10;" d="M 265.7 131.0375 L 193.84375 107.3625 " transform="matrix(1.25,0,0,1.25,-135,63.75)"/>
<path style="fill:none;stroke-width:1;stroke-linecap:round;stroke-linejoin:round;stroke:rgb(0%,0%,0%);stroke-opacity:1;stroke-dasharray:4,4;stroke-miterlimit:10;" d="M 271.734375 128.6 L 234.128125 108.453125 " transform="matrix(1.25,0,0,1.25,-135,63.75)"/>
<path style="fill:none;stroke-width:1;stroke-linecap:round;stroke-linejoin:round;stroke:rgb(0%,0%,0%);stroke-opacity:1;stroke-dasharray:4,4;stroke-miterlimit:10;" d="M 298.60625 128.6 L 308.08125 108.453125 " transform="matrix(1.25,0,0,1.25,-135,63.75)"/>
<path style="fill:none;stroke-width:1;stroke-linecap:round;stroke-linejoin:round;stroke:rgb(0%,0%,0%);stroke-opacity:1;stroke-dasharray:4,4;stroke-miterlimit:10;" d="M 312.04375 128.6 L 345.059375 108.453125 " transform="matrix(1.25,0,0,1.25,-135,63.75)"/>
<path style="fill:none;stroke-width:1;stroke-linecap:round;stroke-linejoin:round;stroke:rgb(0%,0%,0%);stroke-opacity:1;stroke-dasharray:4,4;stroke-miterlimit:10;" d="M 320.7 130.30625 L 383.6375 107.88125 " transform="matrix(1.25,0,0,1.25,-135,63.75)"/>
<path style="fill:none;stroke-width:1;stroke-linecap:round;stroke-linejoin:round;stroke:rgb(0%,0%,0%);stroke-opacity:1;stroke-dasharray:4,4;stroke-miterlimit:10;" d="M 285.171875 128.6 L 271.10625 108.453125 " transform="matrix(1.25,0,0,1.25,-135,63.75)"/>
</g>
</svg>
